<svg width="253" height="56" viewBox="0 0 253 56" fill="none" xmlns="http://www.w3.org/2000/svg">
<g clip-path="url(#clip0_8_103)">
<mask id="mask0_8_103" style="mask-type:luminance" maskUnits="userSpaceOnUse" x="-330" y="-168" width="583" height="393">
<path d="M-330 -168H253V225H-330V-168Z" fill="white"/>
</mask>
<g mask="url(#mask0_8_103)">
<path d="M-71.998 96.6596L-3.70805 28.3696C-2.96424 27.6266 -2.37419 26.7443 -1.9716 25.7731C-1.569 24.8019 -1.36178 23.7609 -1.36178 22.7096C-1.36178 21.6583 -1.569 20.6173 -1.9716 19.6461C-2.37419 18.6749 -2.96424 17.7926 -3.70805 17.0496L-9.70806 11.0496C-10.4518 10.3066 -11.0419 9.42432 -11.4445 8.45313C-11.8471 7.48195 -12.0543 6.44094 -12.0543 5.38961C-12.0543 4.33829 -11.8471 3.29727 -11.4445 2.32609C-11.0419 1.35491 -10.4518 0.472594 -9.70806 -0.270391L8.92194 -18.9004" stroke="#002C8A" stroke-width="2" stroke-miterlimit="10"/>
<path d="M94.211 -104.211L25.921 -35.9209C24.4219 -34.4208 23.5797 -32.3868 23.5797 -30.2659C23.5797 -28.1451 24.4219 -26.1111 25.921 -24.6109L31.921 -18.6109C33.4202 -17.1108 34.2623 -15.0768 34.2623 -12.9559C34.2623 -10.8351 33.4202 -8.80108 31.921 -7.30094L13.271 11.3491" stroke="#002C8A" stroke-width="2" stroke-miterlimit="10"/>
<path d="M73.1798 55.1797L4.88975 123.47C3.3906 124.97 2.54846 127.004 2.54846 129.125C2.54846 131.246 3.3906 133.28 4.88975 134.78L10.8898 140.78C12.389 142.28 13.2311 144.314 13.2311 146.435C13.2311 148.556 12.389 150.59 10.8898 152.09L-7.76025 170.74" stroke="#002C8A" stroke-width="2" stroke-miterlimit="10"/>
<path d="M39.5388 123.441L107.829 55.1508C109.328 53.6507 110.17 51.6167 110.17 49.4958C110.17 47.375 109.328 45.341 107.829 43.8409L101.829 37.8409C101.085 37.0979 100.495 36.2156 100.092 35.2444C99.6898 34.2732 99.4826 33.2322 99.4826 32.1808C99.4826 31.1295 99.6898 30.0885 100.092 29.1173C100.495 28.1461 101.085 27.2638 101.829 26.5209L120.469 7.88086" stroke="#002C8A" stroke-width="2" stroke-miterlimit="10"/>
<path d="M205.672 -77.3203L137.382 -9.00033C136.638 -8.25735 136.048 -7.37504 135.645 -6.40385C135.243 -5.43267 135.036 -4.39164 135.036 -3.34032C135.036 -2.289 135.243 -1.24799 135.645 -0.276802C136.048 0.694383 136.638 1.57669 137.382 2.31967L143.382 8.31967C144.126 9.06266 144.716 9.94496 145.118 10.9162C145.521 11.8873 145.728 12.9284 145.728 13.9797C145.728 15.031 145.521 16.072 145.118 17.0432C144.716 18.0144 144.126 18.8967 143.382 19.6397L124.732 38.2897" stroke="#002C8A" stroke-width="2" stroke-miterlimit="10"/>
<path d="M74.1282 158.001L142.418 89.7107C143.162 88.9677 143.752 88.0854 144.155 87.1142C144.557 86.143 144.764 85.102 144.764 84.0507C144.764 82.9994 144.557 81.9584 144.155 80.9872C143.752 80.016 143.162 79.1337 142.418 78.3907L136.418 72.3907C135.674 71.6477 135.084 70.7654 134.682 69.7942C134.279 68.823 134.072 67.782 134.072 66.7307C134.072 65.6794 134.279 64.6384 134.682 63.6672C135.084 62.696 135.674 61.8137 136.418 61.0707L155.078 42.4707" stroke="#002C8A" stroke-width="2" stroke-miterlimit="10"/>
<path d="M49.3907 10.2695L-18.8993 78.5595C-20.3984 80.0597 -21.2406 82.0937 -21.2406 84.2145C-21.2406 86.3353 -20.3984 88.3694 -18.8993 89.8695L-12.8993 95.8695C-11.4001 97.3697 -10.558 99.4037 -10.558 101.525C-10.558 103.645 -11.4001 105.679 -12.8993 107.18L-31.5493 125.83" stroke="#002C8A" stroke-width="2" stroke-miterlimit="10"/>
<path d="M15.7493 78.53L83.9993 10.24C85.4985 8.73987 86.3406 6.70583 86.3406 4.58501C86.3406 2.46418 85.4985 0.430132 83.9993 -1.07001L77.9993 -7.07001C76.5002 -8.57015 75.658 -10.6042 75.658 -12.725C75.658 -14.8458 76.5002 -16.8799 77.9993 -18.38L96.6993 -37" stroke="#002C8A" stroke-width="2" stroke-miterlimit="10"/>
<path d="M-78.7607 34.2199L-10.4707 -34.0701C-8.97156 -35.5702 -8.12944 -37.6043 -8.12944 -39.7251C-8.12944 -41.8459 -8.97156 -43.8799 -10.4707 -45.3801L-16.4707 -51.3801C-17.9698 -52.8802 -18.812 -54.9143 -18.812 -57.0351C-18.812 -59.1559 -17.9698 -61.1899 -16.4707 -62.6901L2.19928 -81.3301" stroke="#002C8A" stroke-width="2" stroke-miterlimit="10"/>
</g>
</g>
<defs>
<clipPath id="clip0_8_103">
<rect width="253" height="56" fill="white"/>
</clipPath>
</defs>
</svg>
