<svg width="60" height="60" viewBox="0 0 60 60" fill="none" xmlns="http://www.w3.org/2000/svg">
<path d="M33.7505 31.0581C32.3405 31.0581 31.1546 30.5773 30.193 29.6156C29.2313 28.654 28.7505 27.4681 28.7505 26.0581C28.7505 24.6481 29.2313 23.4623 30.193 22.5006C31.1546 21.539 32.3405 21.0581 33.7505 21.0581C35.1605 21.0581 36.3463 21.539 37.308 22.5006C38.2696 23.4623 38.7505 24.6481 38.7505 26.0581C38.7505 27.4681 38.2696 28.654 37.308 29.6156C36.3463 30.5773 35.1605 31.0581 33.7505 31.0581ZM18.2705 39.0381C17.1588 39.0381 16.208 38.6431 15.418 37.8531C14.6263 37.0615 14.2305 36.1106 14.2305 35.0006V17.1156C14.2305 16.0056 14.6263 15.0556 15.418 14.2656C16.208 13.474 17.158 13.0781 18.268 13.0781H49.2305C50.3421 13.0781 51.293 13.4731 52.083 14.2631C52.873 15.0531 53.2688 16.004 53.2705 17.1156V35.0006C53.2705 36.1106 52.8746 37.0606 52.083 37.8506C51.293 38.6423 50.343 39.0381 49.233 39.0381H18.2705ZM20.7705 36.5381H46.7305C46.7305 35.4215 47.1263 34.469 47.918 33.6806C48.708 32.894 49.658 32.5006 50.768 32.5006V19.6156C49.6513 19.6156 48.6988 19.2206 47.9105 18.4306C47.1238 17.639 46.7305 16.6881 46.7305 15.5781H20.7705C20.7705 16.6948 20.3746 17.6473 19.583 18.4356C18.793 19.2223 17.843 19.6156 16.733 19.6156V32.5006C17.8496 32.5006 18.8021 32.8965 19.5905 33.6881C20.3771 34.4781 20.7705 35.4281 20.7705 36.5381ZM45.8655 46.5381H10.7705C9.6588 46.5381 8.70797 46.1431 7.91797 45.3531C7.1263 44.5615 6.73047 43.6106 6.73047 42.5006V20.4806H9.23047V42.5006C9.23047 42.884 9.3913 43.2365 9.71297 43.5581C10.033 43.8781 10.3855 44.0381 10.7705 44.0381H45.8655V46.5381ZM18.2705 36.5381H16.7305V15.5781H18.2705C17.8538 15.5781 17.493 15.7298 17.188 16.0331C16.883 16.3381 16.7305 16.699 16.7305 17.1156V35.0006C16.7305 35.4173 16.883 35.7781 17.188 36.0831C17.493 36.3865 17.8538 36.5381 18.2705 36.5381Z" fill="black"/>
</svg>
