<?xml version="1.0" encoding="UTF-8" standalone="no" ?>
<!DOCTYPE svg PUBLIC "-//W3C//DTD SVG 1.1//EN" "http://www.w3.org/Graphics/SVG/1.1/DTD/svg11.dtd">
<svg xmlns="http://www.w3.org/2000/svg" xmlns:xlink="http://www.w3.org/1999/xlink" version="1.1" width="1080" height="1080" viewBox="0 0 1080 1080" xml:space="preserve">
<desc>Created with Fabric.js 5.2.4</desc>
<defs>
</defs>
<g transform="matrix(1 0 0 1 540 540)" id="53680112-347d-48bd-b487-488fc08e9b2a"  >
<rect style="stroke: none; stroke-width: 1; stroke-dasharray: none; stroke-linecap: butt; stroke-dashoffset: 0; stroke-linejoin: miter; stroke-miterlimit: 4; fill: rgb(255,255,255); fill-rule: nonzero; opacity: 1; visibility: hidden;" vector-effect="non-scaling-stroke"  x="-540" y="-540" rx="0" ry="0" width="1080" height="1080" />
</g>
<g transform="matrix(1 0 0 1 540 540)" id="bceb8487-1522-4d97-a3a2-1fb0b8133061"  >
</g>
<g transform="matrix(6.75 0 0 6.75 540 540)"  >
<g style=""   >
		<g transform="matrix(1 0 0 1 -71.69 -0.1)"  >
<path style="stroke: none; stroke-width: 1; stroke-dasharray: none; stroke-linecap: butt; stroke-dashoffset: 0; stroke-linejoin: miter; stroke-miterlimit: 4; fill: rgb(0,0,0); fill-rule: nonzero; opacity: 1;" vector-effect="non-scaling-stroke"  transform=" translate(-8.31, -14.9)" d="M 8.40962 22.5666 L 8.37926 22.5962 C 5.88977 22.5962 3.86579 21.8756 2.30733 20.4344 C 0.769111 18.9931 0 17.1471 0 14.8963 C 0 12.6259 0.779231 10.7799 2.33769 9.35834 C 3.89615 7.91708 5.91001 7.19645 8.37926 7.19645 C 10.3425 7.19645 12.0123 7.66041 13.3886 8.58835 C 14.7851 9.51629 15.706 10.77 16.1513 12.3495 L 12.0831 12.3495 C 11.7391 11.7374 11.2432 11.2537 10.5955 10.8983 C 9.94784 10.5232 9.20909 10.3356 8.37926 10.3356 C 7.08391 10.3356 6.01121 10.7601 5.16114 11.6091 C 4.33131 12.458 3.91639 13.5439 3.91639 14.8667 C 3.91639 16.1895 4.33131 17.2754 5.16114 18.1244 C 6.01121 18.9733 7.10415 19.3978 8.43998 19.3978 C 9.79604 19.3978 10.8687 18.9635 11.6581 18.0948 C 12.4677 17.2063 12.8016 16.0711 12.66 14.689 L 16.6067 14.689 C 16.7484 17.0188 16.0501 18.9141 14.5119 20.3751 C 12.9737 21.8361 10.9396 22.5666 8.40962 22.5666 Z" stroke-linecap="round" />
</g>
		<g transform="matrix(1 0 0 1 -52.84 -0.13)"  >
<path style="stroke: none; stroke-width: 1; stroke-dasharray: none; stroke-linecap: butt; stroke-dashoffset: 0; stroke-linejoin: miter; stroke-miterlimit: 4; fill: rgb(0,0,0); fill-rule: nonzero; opacity: 1;" vector-effect="non-scaling-stroke"  transform=" translate(-27.16, -14.87)" d="M 27.1776 22.5666 C 24.7083 22.5666 22.6843 21.846 21.1056 20.4047 C 19.5269 18.9635 18.7376 17.1175 18.7376 14.8667 C 18.7376 12.616 19.5269 10.77 21.1056 9.32873 C 22.6843 7.88746 24.7083 7.16683 27.1776 7.16683 C 29.6266 7.16683 31.6404 7.88746 33.2191 9.32873 C 34.7978 10.77 35.5872 12.616 35.5872 14.8667 C 35.5872 17.1175 34.7978 18.9635 33.2191 20.4047 C 31.6404 21.846 29.6266 22.5666 27.1776 22.5666 Z M 23.8684 18.154 C 24.7387 19.003 25.8417 19.4274 27.1776 19.4274 C 28.5134 19.4274 29.6164 19.003 30.4868 18.154 C 31.3571 17.2853 31.7922 16.1895 31.7922 14.8667 C 31.7922 13.5439 31.3571 12.458 30.4868 11.6091 C 29.6164 10.7404 28.5134 10.306 27.1776 10.306 C 25.8417 10.306 24.7387 10.7404 23.8684 11.6091 C 23.0183 12.458 22.5933 13.5439 22.5933 14.8667 C 22.5933 16.1895 23.0183 17.2853 23.8684 18.154 Z" stroke-linecap="round" />
</g>
		<g transform="matrix(1 0 0 1 -39.34 -3.86)"  >
<path style="stroke: none; stroke-width: 1; stroke-dasharray: none; stroke-linecap: butt; stroke-dashoffset: 0; stroke-linejoin: miter; stroke-miterlimit: 4; fill: rgb(0,0,0); fill-rule: nonzero; opacity: 1;" vector-effect="non-scaling-stroke"  transform=" translate(-40.66, -11.14)" d="M 42.7245 4.38302 C 42.1781 4.85686 41.4899 5.09378 40.6601 5.09378 C 39.8302 5.09378 39.132 4.85686 38.5653 4.38302 C 38.0188 3.88944 37.7455 3.27739 37.7455 2.54689 C 37.7455 1.81639 38.0188 1.21422 38.5653 0.740374 C 39.132 0.246791 39.8302 0 40.6601 0 C 41.4899 0 42.1781 0.246791 42.7245 0.740374 C 43.2912 1.21422 43.5746 1.81639 43.5746 2.54689 C 43.5746 3.27739 43.2912 3.88944 42.7245 4.38302 Z M 38.7474 22.2705 L 38.7474 7.46298 L 42.5424 7.46298 L 42.5424 22.2705 L 38.7474 22.2705 Z" stroke-linecap="round" />
</g>
		<g transform="matrix(1 0 0 1 -26.03 -0.27)"  >
<path style="stroke: none; stroke-width: 1; stroke-dasharray: none; stroke-linecap: butt; stroke-dashoffset: 0; stroke-linejoin: miter; stroke-miterlimit: 4; fill: rgb(0,0,0); fill-rule: nonzero; opacity: 1;" vector-effect="non-scaling-stroke"  transform=" translate(-53.97, -14.73)" d="M 55.6689 7.16683 L 55.6385 7.16683 C 57.3994 7.16683 58.7959 7.6999 59.8281 8.76604 C 60.8604 9.83218 61.3765 11.2932 61.3765 13.1491 L 61.3765 22.2705 L 57.5208 22.2705 L 57.5208 13.8302 C 57.5208 12.7443 57.2273 11.8954 56.6404 11.2833 C 56.0534 10.6713 55.2337 10.3653 54.1813 10.3653 C 53.0074 10.3653 52.0763 10.7404 51.3882 11.4906 C 50.7 12.2409 50.3559 13.2675 50.3559 14.5706 L 50.3559 22.3001 L 46.561 22.3001 L 46.561 7.4926 L 50.3559 7.4926 L 50.3559 10.3949 L 50.3863 10.3949 C 51.3173 8.24284 53.0782 7.16683 55.6689 7.16683 Z" stroke-linecap="round" />
</g>
		<g transform="matrix(1 0 0 1 -6.42 3.58)"  >
<path style="stroke: none; stroke-width: 1; stroke-dasharray: none; stroke-linecap: butt; stroke-dashoffset: 0; stroke-linejoin: miter; stroke-miterlimit: 4; fill: rgb(0,0,0); fill-rule: nonzero; opacity: 1;" vector-effect="non-scaling-stroke"  transform=" translate(-73.58, -18.58)" d="M 74.5393 7.16683 L 74.5393 7.22606 C 76.6645 7.22606 78.4354 7.95656 79.8522 9.41757 C 81.2892 10.8786 82.0077 12.7147 82.0077 14.926 C 82.0077 17.1175 81.2892 18.9437 79.8522 20.4047 C 78.4354 21.8657 76.6645 22.5962 74.5393 22.5962 C 73.2844 22.5962 72.1712 22.3198 71.1997 21.767 C 70.2485 21.1945 69.5198 20.3949 69.0138 19.3682 L 68.9531 19.3682 L 68.9531 30 L 65.1582 30 L 65.1582 7.4926 L 68.9531 7.4926 L 68.9531 10.4245 L 69.0138 10.4245 C 69.5198 9.39783 70.2485 8.59822 71.1997 8.02567 C 72.1712 7.45311 73.2844 7.16683 74.5393 7.16683 Z M 73.4463 19.4571 L 73.4463 19.4867 C 74.8024 19.4867 75.9156 19.0622 76.7859 18.2132 C 77.6562 17.3643 78.0914 16.2784 78.0914 14.9556 C 78.0914 13.6525 77.6562 12.5765 76.7859 11.7275 C 75.9156 10.8786 74.8024 10.4541 73.4463 10.4541 C 72.0903 10.4541 70.9771 10.8786 70.1068 11.7275 C 69.2365 12.5765 68.8013 13.6525 68.8013 14.9556 C 68.8013 16.2586 69.2365 17.3346 70.1068 18.1836 C 70.9771 19.0326 72.0903 19.4571 73.4463 19.4571 Z" stroke-linecap="round" />
</g>
		<g transform="matrix(1 0 0 1 9.65 -0.3)"  >
<path style="stroke: none; stroke-width: 1; stroke-dasharray: none; stroke-linecap: butt; stroke-dashoffset: 0; stroke-linejoin: miter; stroke-miterlimit: 4; fill: rgb(0,0,0); fill-rule: nonzero; opacity: 1;" vector-effect="non-scaling-stroke"  transform=" translate(-89.65, -14.7)" d="M 93.7899 7.16683 L 93.7595 7.13722 C 94.0227 7.13722 94.2149 7.14709 94.3364 7.16683 L 94.3364 10.8391 L 93.5774 10.8391 C 90.3592 10.8391 88.7502 12.7443 88.7502 16.5548 L 88.7502 22.2705 L 84.9552 22.2705 L 84.9552 7.46298 L 88.5984 7.46298 L 88.5984 11.8164 L 88.6288 11.8164 C 89.3979 8.71668 91.1182 7.16683 93.7899 7.16683 Z" stroke-linecap="round" />
</g>
		<g transform="matrix(1 0 0 1 24.07 -0.13)"  >
<path style="stroke: none; stroke-width: 1; stroke-dasharray: none; stroke-linecap: butt; stroke-dashoffset: 0; stroke-linejoin: miter; stroke-miterlimit: 4; fill: rgb(0,0,0); fill-rule: nonzero; opacity: 1;" vector-effect="non-scaling-stroke"  transform=" translate(-104.07, -14.87)" d="M 104.085 22.5666 C 101.615 22.5666 99.5914 21.846 98.0127 20.4047 C 96.434 18.9635 95.6447 17.1175 95.6447 14.8667 C 95.6447 12.616 96.434 10.77 98.0127 9.32873 C 99.5914 7.88746 101.615 7.16683 104.085 7.16683 C 106.534 7.16683 108.548 7.88746 110.126 9.32873 C 111.705 10.77 112.494 12.616 112.494 14.8667 C 112.494 17.1175 111.705 18.9635 110.126 20.4047 C 108.548 21.846 106.534 22.5666 104.085 22.5666 Z M 100.775 18.154 C 101.646 19.003 102.749 19.4274 104.085 19.4274 C 105.42 19.4274 106.524 19.003 107.394 18.154 C 108.264 17.2853 108.699 16.1895 108.699 14.8667 C 108.699 13.5439 108.264 12.458 107.394 11.6091 C 106.524 10.7404 105.42 10.306 104.085 10.306 C 102.749 10.306 101.646 10.7404 100.775 11.6091 C 99.9254 12.458 99.5003 13.5439 99.5003 14.8667 C 99.5003 16.1895 99.9254 17.2853 100.775 18.154 Z" stroke-linecap="round" />
</g>
		<g transform="matrix(1 0 0 1 39.74 -3.55)"  >
<path style="stroke: none; stroke-width: 1; stroke-dasharray: none; stroke-linecap: butt; stroke-dashoffset: 0; stroke-linejoin: miter; stroke-miterlimit: 4; fill: rgb(0,0,0); fill-rule: nonzero; opacity: 1;" vector-effect="non-scaling-stroke"  transform=" translate(-119.75, -11.45)" d="M 123.555 3.87956 L 123.494 3.87956 C 122.361 3.87956 121.592 4.11649 121.187 4.59033 C 120.782 5.06417 120.58 5.69595 120.58 6.48568 L 120.58 7.46298 L 125.407 7.46298 L 125.407 10.5429 L 120.58 10.5429 L 120.58 22.2705 L 116.846 22.2705 L 116.846 10.5429 L 114.053 10.5429 L 114.053 7.46298 L 116.846 7.46298 L 116.846 6.24877 C 116.846 4.49161 117.372 3.11945 118.424 2.13228 C 119.497 1.12537 120.985 0.621916 122.887 0.621916 C 123.798 0.621916 124.648 0.730504 125.437 0.94768 L 125.437 4.11649 C 124.749 3.95854 124.122 3.87956 123.555 3.87956 Z" stroke-linecap="round" />
</g>
		<g transform="matrix(1 0 0 1 50.14 -3.86)"  >
<path style="stroke: none; stroke-width: 1; stroke-dasharray: none; stroke-linecap: butt; stroke-dashoffset: 0; stroke-linejoin: miter; stroke-miterlimit: 4; fill: rgb(0,0,0); fill-rule: nonzero; opacity: 1;" vector-effect="non-scaling-stroke"  transform=" translate(-130.14, -11.14)" d="M 132.202 4.38302 C 131.656 4.85686 130.968 5.09378 130.138 5.09378 C 129.308 5.09378 128.61 4.85686 128.043 4.38302 C 127.497 3.88944 127.223 3.27739 127.223 2.54689 C 127.223 1.81639 127.497 1.21422 128.043 0.740374 C 128.61 0.246791 129.308 0 130.138 0 C 130.968 0 131.656 0.246791 132.202 0.740374 C 132.769 1.21422 133.052 1.81639 133.052 2.54689 C 133.052 3.27739 132.769 3.88944 132.202 4.38302 Z M 128.225 22.2705 L 128.225 7.46298 L 132.02 7.46298 L 132.02 22.2705 L 128.225 22.2705 Z" stroke-linecap="round" />
</g>
		<g transform="matrix(1 0 0 1 58.15 -3.39)"  >
<path style="stroke: none; stroke-width: 1; stroke-dasharray: none; stroke-linecap: butt; stroke-dashoffset: 0; stroke-linejoin: miter; stroke-miterlimit: 4; fill: rgb(0,0,0); fill-rule: nonzero; opacity: 1;" vector-effect="non-scaling-stroke"  transform=" translate(-138.15, -11.61)" d="M 136.255 22.2705 L 136.255 0.94768 L 140.05 0.94768 L 140.05 22.2705 L 136.255 22.2705 Z" stroke-linecap="round" />
</g>
		<g transform="matrix(1 0 0 1 71.34 -0.16)"  >
<path style="stroke: none; stroke-width: 1; stroke-dasharray: none; stroke-linecap: butt; stroke-dashoffset: 0; stroke-linejoin: miter; stroke-miterlimit: 4; fill: rgb(0,0,0); fill-rule: nonzero; opacity: 1;" vector-effect="non-scaling-stroke"  transform=" translate(-151.34, -14.84)" d="M 155.618 16.1698 L 159.474 16.1698 C 159.352 18.0652 158.543 19.6051 157.045 20.7897 C 155.567 21.9546 153.726 22.537 151.519 22.537 C 149.07 22.537 147.067 21.8164 145.508 20.3751 C 143.97 18.9141 143.201 17.0484 143.201 14.7779 C 143.201 12.5469 143.96 10.7206 145.478 9.29911 C 147.016 7.85785 148.989 7.13722 151.398 7.13722 C 153.807 7.13722 155.719 7.82823 157.136 9.21027 C 158.573 10.5923 159.251 12.4383 159.17 14.7483 L 146.874 14.7483 C 146.895 16.1895 147.32 17.3346 148.15 18.1836 C 148.979 19.0128 150.072 19.4274 151.428 19.4274 C 152.582 19.4274 153.543 19.1313 154.313 18.539 C 155.102 17.927 155.537 17.1372 155.618 16.1698 Z M 151.337 9.89141 C 149.455 9.89141 148.139 10.6318 147.391 12.1125 L 155.132 12.1125 C 154.505 10.6318 153.24 9.89141 151.337 9.89141 Z" stroke-linecap="round" />
</g>
</g>
</g>
</svg>