<svg width="38" height="38" viewBox="0 0 38 38" fill="none" xmlns="http://www.w3.org/2000/svg">
<rect x="0.5" y="0.5" width="37" height="36.8785" rx="18.4393" fill="#E6F7FF"/>
<rect x="0.5" y="0.5" width="37" height="36.8785" rx="18.4393" stroke="#A0DBF5"/>
<path d="M29 19C29 13.4771 24.5229 9 19 9C13.4771 9 9 13.4771 9 19C9 23.9913 12.6569 28.1283 17.4375 28.8785V21.8906H14.8984V19H17.4375V16.7969C17.4375 14.2906 18.9304 12.9062 21.2146 12.9062C22.3087 12.9062 23.4531 13.1016 23.4531 13.1016V15.5625H22.1921C20.9499 15.5625 20.5625 16.3333 20.5625 17.1242V19H23.3359L22.8926 21.8906H20.5625V28.8785C25.3431 28.1283 29 23.9913 29 19Z" fill="#002C8A"/>
</svg>
