<svg width="318" height="318" viewBox="0 0 318 318" fill="none" xmlns="http://www.w3.org/2000/svg">
<path d="M209.3 127.1H201.2C201.2 114.1 206.6 110.7 211.3 105.3C215.3 100.8 218.7 96.4 218.7 91.3C218.7 85.9 216.8 79.9 207.9 79.9C200.2 79.9 195.1 84 195.1 93H187C187 80 195.8 72 207.9 72C219.6 72 226.8 79 226.8 91C226.8 98.7 222.1 105 217.5 110.2C213.3 115.1 209.3 118.1 209.3 127.1Z" stroke="#9F9F9F" stroke-width="2" stroke-miterlimit="10" stroke-linecap="round" stroke-linejoin="round"/>
<path d="M204.699 144.798C207.185 144.798 209.199 142.918 209.199 140.598C209.199 138.279 207.185 136.398 204.699 136.398C202.214 136.398 200.199 138.279 200.199 140.598C200.199 142.918 202.214 144.798 204.699 144.798Z" stroke="#9F9F9F" stroke-width="2" stroke-miterlimit="10" stroke-linecap="round" stroke-linejoin="round"/>
<path d="M120 124.002C120 110.733 120 74.2181 120 74.2181C120 55.5615 135.465 39 156.573 39H248.346C267.084 39 283 53.6659 283 70.2274V158.223C283 172.589 269.116 185.858 252.861 185.858H150.478L120 211V147.348" stroke="black" stroke-width="2" stroke-miterlimit="10" stroke-linecap="round" stroke-linejoin="round"/>
<path d="M161.889 173.661C161.889 163.746 161.889 160.341 161.889 160.341C161.889 146.319 150.534 134 134.95 134H67.4916C53.6883 134 42 145.017 42 157.436V223.339C42 234.055 52.2412 244.571 64.1521 244.571H139.514L162 263V197.699" stroke="black" stroke-width="2" stroke-miterlimit="10" stroke-linecap="round" stroke-linejoin="round"/>
<path d="M84.3992 87.5016C84.3992 83.6016 84.3992 72.5016 84.3992 72.5016C84.3992 67.0016 80.3992 62.1016 74.7992 62.1016H50.7992C45.8992 62.1016 41.6992 66.4016 41.6992 71.3016V97.3016C41.6992 101.502 45.2992 105.702 49.5992 105.702H76.3992L84.3992 113.002V87.3016" stroke="#9F9F9F" stroke-miterlimit="10" stroke-linecap="round" stroke-linejoin="round"/>
<path d="M185 263.399C185 259.353 185 247.823 185 247.823C185 242.057 189.975 237 196.727 237H225.984C232.025 237 237 241.552 237 246.609V273.716C237 278.166 232.617 282.414 227.405 282.414H194.713L185 290V263.095" stroke="#9F9F9F" stroke-miterlimit="10" stroke-linecap="round" stroke-linejoin="round"/>
<path d="M213.6 213.701C214.263 213.701 214.8 213.164 214.8 212.501C214.8 211.838 214.263 211.301 213.6 211.301C212.938 211.301 212.4 211.838 212.4 212.501C212.4 213.164 212.938 213.701 213.6 213.701Z" stroke="#9F9F9F" stroke-width="0.5005" stroke-miterlimit="10" stroke-linecap="round" stroke-linejoin="round"/>
<path d="M217.6 213.701C218.263 213.701 218.8 213.164 218.8 212.501C218.8 211.838 218.263 211.301 217.6 211.301C216.938 211.301 216.4 211.838 216.4 212.501C216.4 213.164 216.938 213.701 217.6 213.701Z" stroke="#9F9F9F" stroke-width="0.5005" stroke-miterlimit="10" stroke-linecap="round" stroke-linejoin="round"/>
<path d="M221.7 213.701C222.363 213.701 222.9 213.164 222.9 212.501C222.9 211.838 222.363 211.301 221.7 211.301C221.037 211.301 220.5 211.838 220.5 212.501C220.5 213.164 221.037 213.701 221.7 213.701Z" stroke="#9F9F9F" stroke-width="0.5005" stroke-miterlimit="10" stroke-linecap="round" stroke-linejoin="round"/>
<path d="M225.7 213.701C226.363 213.701 226.9 213.164 226.9 212.501C226.9 211.838 226.363 211.301 225.7 211.301C225.037 211.301 224.5 211.838 224.5 212.501C224.5 213.164 225.037 213.701 225.7 213.701Z" stroke="#9F9F9F" stroke-width="0.5005" stroke-miterlimit="10" stroke-linecap="round" stroke-linejoin="round"/>
<path d="M229.7 213.701C230.363 213.701 230.9 213.164 230.9 212.501C230.9 211.838 230.363 211.301 229.7 211.301C229.037 211.301 228.5 211.838 228.5 212.501C228.5 213.164 229.037 213.701 229.7 213.701Z" stroke="#9F9F9F" stroke-width="0.5005" stroke-miterlimit="10" stroke-linecap="round" stroke-linejoin="round"/>
<path d="M233.8 213.701C234.462 213.701 235 213.164 235 212.501C235 211.838 234.462 211.301 233.8 211.301C233.137 211.301 232.6 211.838 232.6 212.501C232.6 213.164 233.137 213.701 233.8 213.701Z" stroke="#9F9F9F" stroke-width="0.5005" stroke-miterlimit="10" stroke-linecap="round" stroke-linejoin="round"/>
<path d="M237.8 213.701C238.462 213.701 239 213.164 239 212.501C239 211.838 238.462 211.301 237.8 211.301C237.137 211.301 236.6 211.838 236.6 212.501C236.6 213.164 237.137 213.701 237.8 213.701Z" stroke="#9F9F9F" stroke-width="0.5005" stroke-miterlimit="10" stroke-linecap="round" stroke-linejoin="round"/>
<path d="M241.8 213.701C242.462 213.701 243 213.164 243 212.501C243 211.838 242.462 211.301 241.8 211.301C241.137 211.301 240.6 211.838 240.6 212.501C240.6 213.164 241.137 213.701 241.8 213.701Z" stroke="#9F9F9F" stroke-width="0.5005" stroke-miterlimit="10" stroke-linecap="round" stroke-linejoin="round"/>
<path d="M245.901 213.701C246.564 213.701 247.101 213.164 247.101 212.501C247.101 211.838 246.564 211.301 245.901 211.301C245.238 211.301 244.701 211.838 244.701 212.501C244.701 213.164 245.238 213.701 245.901 213.701Z" stroke="#9F9F9F" stroke-width="0.5005" stroke-miterlimit="10" stroke-linecap="round" stroke-linejoin="round"/>
<path d="M249.901 213.701C250.564 213.701 251.101 213.164 251.101 212.501C251.101 211.838 250.564 211.301 249.901 211.301C249.238 211.301 248.701 211.838 248.701 212.501C248.701 213.164 249.238 213.701 249.901 213.701Z" stroke="#9F9F9F" stroke-width="0.5005" stroke-miterlimit="10" stroke-linecap="round" stroke-linejoin="round"/>
<path d="M253.901 213.701C254.564 213.701 255.101 213.164 255.101 212.501C255.101 211.838 254.564 211.301 253.901 211.301C253.238 211.301 252.701 211.838 252.701 212.501C252.701 213.164 253.238 213.701 253.901 213.701Z" stroke="#9F9F9F" stroke-width="0.5005" stroke-miterlimit="10" stroke-linecap="round" stroke-linejoin="round"/>
<path d="M258.001 213.701C258.664 213.701 259.201 213.164 259.201 212.501C259.201 211.838 258.664 211.301 258.001 211.301C257.338 211.301 256.801 211.838 256.801 212.501C256.801 213.164 257.338 213.701 258.001 213.701Z" stroke="#9F9F9F" stroke-width="0.5005" stroke-miterlimit="10" stroke-linecap="round" stroke-linejoin="round"/>
<path d="M262.001 213.701C262.664 213.701 263.201 213.164 263.201 212.501C263.201 211.838 262.664 211.301 262.001 211.301C261.338 211.301 260.801 211.838 260.801 212.501C260.801 213.164 261.338 213.701 262.001 213.701Z" stroke="#9F9F9F" stroke-width="0.5005" stroke-miterlimit="10" stroke-linecap="round" stroke-linejoin="round"/>
<path d="M266.001 213.701C266.664 213.701 267.201 213.164 267.201 212.501C267.201 211.838 266.664 211.301 266.001 211.301C265.338 211.301 264.801 211.838 264.801 212.501C264.801 213.164 265.338 213.701 266.001 213.701Z" stroke="#9F9F9F" stroke-width="0.5005" stroke-miterlimit="10" stroke-linecap="round" stroke-linejoin="round"/>
<path d="M270.1 213.701C270.763 213.701 271.3 213.164 271.3 212.501C271.3 211.838 270.763 211.301 270.1 211.301C269.438 211.301 268.9 211.838 268.9 212.501C268.9 213.164 269.438 213.701 270.1 213.701Z" stroke="#9F9F9F" stroke-width="0.5005" stroke-miterlimit="10" stroke-linecap="round" stroke-linejoin="round"/>
<path d="M274.1 213.701C274.763 213.701 275.3 213.164 275.3 212.501C275.3 211.838 274.763 211.301 274.1 211.301C273.438 211.301 272.9 211.838 272.9 212.501C272.9 213.164 273.438 213.701 274.1 213.701Z" stroke="#9F9F9F" stroke-width="0.5005" stroke-miterlimit="10" stroke-linecap="round" stroke-linejoin="round"/>
<path d="M52.3992 85.7984C53.062 85.7984 53.5992 85.2612 53.5992 84.5984C53.5992 83.9357 53.062 83.3984 52.3992 83.3984C51.7365 83.3984 51.1992 83.9357 51.1992 84.5984C51.1992 85.2612 51.7365 85.7984 52.3992 85.7984Z" stroke="#9F9F9F" stroke-width="0.5005" stroke-miterlimit="10" stroke-linecap="round" stroke-linejoin="round"/>
<path d="M56.7 85.7984C57.3627 85.7984 57.9 85.2612 57.9 84.5984C57.9 83.9357 57.3627 83.3984 56.7 83.3984C56.0373 83.3984 55.5 83.9357 55.5 84.5984C55.5 85.2612 56.0373 85.7984 56.7 85.7984Z" stroke="#9F9F9F" stroke-width="0.5005" stroke-miterlimit="10" stroke-linecap="round" stroke-linejoin="round"/>
<path d="M60.8992 85.7984C61.562 85.7984 62.0992 85.2612 62.0992 84.5984C62.0992 83.9357 61.562 83.3984 60.8992 83.3984C60.2365 83.3984 59.6992 83.9357 59.6992 84.5984C59.6992 85.2612 60.2365 85.7984 60.8992 85.7984Z" stroke="#9F9F9F" stroke-width="0.5005" stroke-miterlimit="10" stroke-linecap="round" stroke-linejoin="round"/>
<path d="M65.2 85.7984C65.8627 85.7984 66.4 85.2612 66.4 84.5984C66.4 83.9357 65.8627 83.3984 65.2 83.3984C64.5373 83.3984 64 83.9357 64 84.5984C64 85.2612 64.5373 85.7984 65.2 85.7984Z" stroke="#9F9F9F" stroke-width="0.5005" stroke-miterlimit="10" stroke-linecap="round" stroke-linejoin="round"/>
<path d="M69.3992 85.7984C70.062 85.7984 70.5992 85.2612 70.5992 84.5984C70.5992 83.9357 70.062 83.3984 69.3992 83.3984C68.7365 83.3984 68.1992 83.9357 68.1992 84.5984C68.1992 85.2612 68.7365 85.7984 69.3992 85.7984Z" stroke="#9F9F9F" stroke-width="0.5005" stroke-miterlimit="10" stroke-linecap="round" stroke-linejoin="round"/>
<path d="M73.7 85.7984C74.3627 85.7984 74.9 85.2612 74.9 84.5984C74.9 83.9357 74.3627 83.3984 73.7 83.3984C73.0373 83.3984 72.5 83.9357 72.5 84.5984C72.5 85.2612 73.0373 85.7984 73.7 85.7984Z" stroke="#9F9F9F" stroke-width="0.5005" stroke-miterlimit="10" stroke-linecap="round" stroke-linejoin="round"/>
<path d="M212.3 249L214 254.3H219.5L215 257.9L216.8 263.3L212.3 260.1L207.8 263.4L209.5 257.8L205 254.3H210.5L212.3 249Z" stroke="#9F9F9F" stroke-miterlimit="10" stroke-linecap="round" stroke-linejoin="round"/>
</svg>
