<svg width="480" height="760" viewBox="0 0 480 760" fill="none" xmlns="http://www.w3.org/2000/svg">
<g clip-path="url(#clip0_3354_4517)">
<rect width="480" height="760" fill="#FFFEFE"/>
<path d="M-118.441 703.387L-47.4908 557.599C-46.7188 556.013 -45.8021 554.754 -44.7931 553.893C-43.784 553.033 -42.7025 552.591 -41.6102 552.591C-40.518 552.591 -39.4364 553.033 -38.4274 553.893C-37.4183 554.754 -36.5017 556.013 -35.7297 557.599L-29.4959 570.408C-28.724 571.997 -27.8073 573.256 -26.7983 574.117C-25.7893 574.977 -24.7077 575.419 -23.6154 575.419C-22.5232 575.419 -21.4416 574.977 -20.4326 574.117C-19.4235 573.256 -18.5069 571.997 -17.7349 570.408L1.64171 530.594" stroke="#AEB9CC" stroke-width="2" stroke-miterlimit="10"/>
<path d="M275.938 41.6292L346.888 -104.158C347.66 -105.746 348.576 -107.006 349.585 -107.866C350.595 -108.725 351.677 -109.167 352.769 -109.167C353.861 -109.167 354.942 -108.725 355.951 -107.866C356.961 -107.006 357.877 -105.746 358.649 -104.158L364.883 -91.3495C365.655 -89.7616 366.571 -88.5018 367.58 -87.6423C368.59 -86.7831 369.672 -86.3405 370.763 -86.3405C371.855 -86.3405 372.937 -86.7831 373.946 -87.6423C374.956 -88.5018 375.872 -89.7616 376.644 -91.3495L396.021 -131.164" stroke="#AEB9CC" stroke-width="2" stroke-miterlimit="10"/>
<path d="M-55.0566 129.116L15.894 -16.6719C16.666 -18.2598 17.5826 -19.5195 18.5917 -20.379C19.6007 -21.2384 20.6823 -21.6807 21.7745 -21.6807C22.8668 -21.6807 23.9484 -21.2384 24.9574 -20.379C25.9664 -19.5195 26.8831 -18.2598 27.655 -16.6719L33.8888 -3.86288C34.6608 -2.27495 35.5774 -1.01526 36.5865 -0.155786C37.5955 0.703684 38.6771 1.14604 39.7693 1.14604C40.8616 1.14604 41.9433 0.703685 42.9522 -0.155786C43.9612 -1.01526 44.8779 -2.27497 45.6499 -3.86288L65.0161 -43.6562" stroke="#AEB9CC" stroke-width="2" stroke-miterlimit="10"/>
<path d="M151.879 88.786L220.169 20.496C221.669 18.9968 223.703 18.1547 225.824 18.1547C227.945 18.1547 229.979 18.9968 231.479 20.496L237.479 26.496C238.979 27.9951 241.013 28.8373 243.134 28.8373C245.255 28.8373 247.289 27.9951 248.789 26.496L267.479 7.83594" stroke="#AEB9CC" stroke-width="2" stroke-miterlimit="10"/>
<path d="M220.138 55.1875L151.848 123.478C151.105 124.221 150.223 124.811 149.252 125.214C148.28 125.617 147.239 125.824 146.188 125.824C145.137 125.824 144.096 125.617 143.125 125.214C142.153 124.811 141.271 124.221 140.528 123.478L134.528 117.478C133.785 116.734 132.903 116.144 131.932 115.741C130.96 115.338 129.919 115.131 128.868 115.131C127.817 115.131 126.776 115.338 125.805 115.741C124.833 116.144 123.951 116.734 123.208 117.478L104.578 136.108" stroke="#AEB9CC" stroke-width="2" stroke-miterlimit="10"/>
<path d="M19.2695 221.401L87.5595 153.111C89.0597 151.612 91.0937 150.77 93.2145 150.77C95.3354 150.77 97.3694 151.612 98.8695 153.111L104.87 159.111C106.37 160.61 108.404 161.452 110.525 161.452C112.645 161.452 114.679 160.61 116.18 159.111L134.83 140.461" stroke="#AEB9CC" stroke-width="2" stroke-miterlimit="10"/>
<path d="M87.5305 187.766L19.2405 256.056C17.7403 257.555 15.7063 258.398 13.5855 258.398C11.4646 258.398 9.43058 257.555 7.93044 256.056L1.93044 250.056C0.430298 248.557 -1.60374 247.715 -3.72456 247.715C-5.84539 247.715 -7.87942 248.557 -9.37956 250.056L-28.0195 268.716" stroke="#AEB9CC" stroke-width="2" stroke-miterlimit="10"/>
<path d="M333.861 11.0469L265.571 79.3369C264.828 80.0807 263.946 80.6708 262.975 81.0734C262.004 81.4759 260.963 81.6832 259.911 81.6832C258.86 81.6832 257.819 81.4759 256.848 81.0734C255.877 80.6708 254.994 80.0807 254.251 79.3369L248.251 73.3369C247.508 72.5931 246.626 72.003 245.655 71.6004C244.684 71.1978 243.643 70.9906 242.591 70.9906C241.54 70.9906 240.499 71.1978 239.528 71.6004C238.557 72.003 237.674 72.5931 236.931 73.3369L218.281 91.9869" stroke="#AEB9CC" stroke-width="2" stroke-miterlimit="10"/>
<path d="M310.078 68.94L378.368 0.649998C379.111 -0.0938023 379.993 -0.683902 380.965 -1.0865C381.936 -1.4891 382.977 -1.6963 384.028 -1.6963C385.079 -1.6963 386.12 -1.4891 387.092 -1.0865C388.063 -0.683902 388.945 -0.0938023 389.688 0.649998L395.688 6.65C396.431 7.3938 397.313 7.9839 398.285 8.3865C399.256 8.789 400.297 8.9963 401.348 8.9963C402.399 8.9963 403.44 8.789 404.412 8.3864C405.383 7.9839 406.265 7.3938 407.008 6.65L425.658 -12" stroke="#AEB9CC" stroke-width="2" stroke-miterlimit="10"/>
<path d="M378.351 35.2969L310.061 103.597C309.318 104.341 308.436 104.931 307.465 105.333C306.494 105.736 305.453 105.943 304.401 105.943C303.35 105.943 302.309 105.736 301.338 105.333C300.367 104.931 299.484 104.341 298.741 103.597L292.741 97.5969C291.241 96.0977 289.207 95.2556 287.086 95.2556C284.965 95.2556 282.931 96.0977 281.431 97.5969L262.781 116.247" stroke="#AEB9CC" stroke-width="2" stroke-miterlimit="10"/>
<path d="M178.66 200.37L246.95 132.08C248.45 130.581 250.484 129.738 252.605 129.738C254.726 129.738 256.76 130.581 258.26 132.08L264.26 138.08C265.76 139.579 267.794 140.421 269.915 140.421C272.036 140.421 274.07 139.579 275.57 138.08L294.22 119.43" stroke="#AEB9CC" stroke-width="2" stroke-miterlimit="10"/>
<path d="M246.919 166.727L178.629 235.017C177.129 236.516 175.095 237.358 172.974 237.358C170.854 237.358 168.82 236.516 167.319 235.017L161.319 229.017C160.576 228.273 159.694 227.683 158.723 227.28C157.752 226.878 156.711 226.67 155.659 226.67C154.608 226.67 153.567 226.878 152.596 227.28C151.625 227.683 150.742 228.273 149.999 229.017L131.359 247.657" stroke="#AEB9CC" stroke-width="2" stroke-miterlimit="10"/>
<path d="M46.1602 332.862L114.48 264.572C115.223 263.828 116.105 263.238 117.077 262.835C118.048 262.433 119.089 262.226 120.14 262.226C121.191 262.226 122.232 262.433 123.204 262.835C124.175 263.238 125.057 263.828 125.8 264.572L131.8 270.572C132.543 271.316 133.425 271.906 134.397 272.308C135.368 272.711 136.409 272.918 137.46 272.918C138.511 272.918 139.552 272.711 140.524 272.308C141.495 271.906 142.377 271.316 143.12 270.572L161.77 251.922" stroke="#AEB9CC" stroke-width="2" stroke-miterlimit="10"/>
<path d="M114.481 299.188L46.1411 367.517C45.3981 368.261 44.5158 368.852 43.5446 369.254C42.5734 369.657 41.5324 369.863 40.4811 369.863C39.4298 369.863 38.3888 369.657 37.4176 369.254C36.4464 368.852 35.5641 368.261 34.8211 367.517L28.8211 361.517C27.3209 360.018 25.2869 359.177 23.1661 359.177C21.0453 359.177 19.0112 360.018 17.5111 361.517L-1.12891 380.188" stroke="#AEB9CC" stroke-width="2" stroke-miterlimit="10"/>
<path d="M213.238 234.948L281.538 166.658C283.038 165.159 285.072 164.316 287.193 164.316C289.314 164.316 291.348 165.159 292.848 166.658L298.848 172.658C300.348 174.157 302.382 174.999 304.503 174.999C306.624 174.999 308.658 174.157 310.158 172.658L328.808 154.008" stroke="#AEB9CC" stroke-width="2" stroke-miterlimit="10"/>
<path d="M281.479 201.312L213.189 269.602C212.446 270.346 211.564 270.936 210.593 271.339C209.622 271.741 208.581 271.949 207.529 271.949C206.478 271.949 205.437 271.741 204.466 271.339C203.495 270.936 202.612 270.346 201.869 269.602L195.869 263.602C195.126 262.858 194.244 262.269 193.273 261.867C192.302 261.464 191.261 261.257 190.209 261.257C189.158 261.257 188.117 261.464 187.146 261.867C186.175 262.269 185.292 262.858 184.549 263.602L165.949 282.262" stroke="#AEB9CC" stroke-width="2" stroke-miterlimit="10"/>
<path d="M345.711 102.489L414.001 34.1891C414.744 33.4453 415.626 32.8552 416.597 32.4526C417.569 32.05 418.61 31.8428 419.661 31.8428C420.712 31.8428 421.753 32.05 422.724 32.4526C423.696 32.8552 424.578 33.4453 425.321 34.1891L431.321 40.1891C432.064 40.9329 432.946 41.523 433.917 41.9255C434.889 42.3281 435.93 42.5354 436.981 42.5354C438.032 42.5354 439.073 42.3281 440.044 41.9255C441.016 41.523 441.898 40.9329 442.641 40.1891L461.291 21.5391" stroke="#AEB9CC" stroke-width="2" stroke-miterlimit="10"/>
<path d="M413.98 68.8438L345.69 137.134C344.947 137.878 344.065 138.468 343.094 138.87C342.123 139.273 341.081 139.48 340.03 139.48C338.979 139.48 337.938 139.273 336.967 138.87C335.995 138.468 335.113 137.878 334.37 137.134L328.37 131.134C326.87 129.635 324.836 128.793 322.715 128.793C320.594 128.793 318.56 129.635 317.06 131.134L298.41 149.774" stroke="#AEB9CC" stroke-width="2" stroke-miterlimit="10"/>
<path d="M133.75 176.581L202.04 108.291C203.54 106.792 205.574 105.949 207.695 105.949C209.816 105.949 211.85 106.792 213.35 108.291L219.35 114.291C220.85 115.79 222.884 116.632 225.005 116.632C227.126 116.632 229.16 115.79 230.66 114.291L249.31 95.6406" stroke="#AEB9CC" stroke-width="2" stroke-miterlimit="10"/>
<path d="M202.01 142.938L133.72 211.187C132.22 212.686 130.186 213.528 128.065 213.528C125.945 213.528 123.911 212.686 122.41 211.187L116.41 205.187C114.91 203.688 112.876 202.847 110.755 202.847C108.635 202.847 106.601 203.688 105.1 205.187L86.4805 223.888" stroke="#AEB9CC" stroke-width="2" stroke-miterlimit="10"/>
<path d="M0.53125 309.799L68.8212 241.509C70.3214 240.01 72.3554 239.168 74.4763 239.168C76.5971 239.168 78.6311 240.01 80.1313 241.509L86.1312 247.509C87.6314 249.009 89.6654 249.851 91.7862 249.851C93.9071 249.851 95.9411 249.009 97.4413 247.509L116.091 228.859" stroke="#AEB9CC" stroke-width="2" stroke-miterlimit="10"/>
<path d="M68.7905 276.188L0.480438 344.457C-0.262546 345.2 -1.14485 345.792 -2.11604 346.194C-3.08722 346.597 -4.12824 346.803 -5.17956 346.803C-6.23089 346.803 -7.2719 346.597 -8.24308 346.194C-9.21427 345.792 -10.0965 345.2 -10.8395 344.457L-16.8395 338.457C-17.5825 337.713 -18.4648 337.123 -19.436 336.72C-20.4072 336.318 -21.4482 336.111 -22.4995 336.111C-23.5509 336.111 -24.5919 336.318 -25.5631 336.72C-26.5342 337.123 -27.4165 337.713 -28.1595 338.457L-46.7695 357.117" stroke="#AEB9CC" stroke-width="2" stroke-miterlimit="10"/>
<path d="M89.4805 82.065L157.77 13.775C159.271 12.2758 161.305 11.4337 163.425 11.4337C165.546 11.4337 167.58 12.2758 169.08 13.775L175.08 19.775C176.581 21.2741 178.615 22.1163 180.735 22.1163C182.856 22.1163 184.89 21.2741 186.39 19.775L205.04 1.125" stroke="#AEB9CC" stroke-width="2" stroke-miterlimit="10"/>
<path d="M157.698 48.4297L89.4084 116.72C87.9083 118.219 85.8743 119.061 83.7534 119.061C81.6326 119.061 79.5986 118.219 78.0984 116.72L72.0984 110.72C70.5983 109.221 68.5643 108.378 66.4434 108.378C64.3226 108.378 62.2886 109.221 60.7884 110.72L42.1484 129.389" stroke="#AEB9CC" stroke-width="2" stroke-miterlimit="10"/>
<path d="M-43.2891 214.799L25.0009 146.509C26.5011 145.01 28.5351 144.168 30.6559 144.168C32.7768 144.168 34.8108 145.01 36.3109 146.509L42.3109 152.509C43.8111 154.009 45.8451 154.851 47.9659 154.851C50.0868 154.851 52.1208 154.009 53.6209 152.509L72.2709 133.859" stroke="#AEB9CC" stroke-width="2" stroke-miterlimit="10"/>
<path d="M24.968 181.188L-43.322 249.458C-44.065 250.202 -44.9473 250.791 -45.9185 251.193C-46.8897 251.596 -47.9307 251.803 -48.982 251.803C-50.0334 251.803 -51.0744 251.596 -52.0456 251.193C-53.0167 250.791 -53.899 250.202 -54.642 249.458L-60.642 243.458C-61.385 242.714 -62.2673 242.124 -63.2385 241.721C-64.2097 241.319 -65.2507 241.111 -66.302 241.111C-67.3534 241.111 -68.3944 241.319 -69.3656 241.721C-70.3367 242.124 -71.219 242.714 -71.962 243.458L-90.582 262.117" stroke="#AEB9CC" stroke-width="2" stroke-miterlimit="10"/>
<path d="M15.2684 52.0312L-53.0216 120.321C-54.5217 121.82 -56.5557 122.663 -58.6766 122.663C-60.7974 122.663 -62.8314 121.82 -64.3316 120.321L-70.3316 114.321C-71.8317 112.822 -73.8656 111.98 -75.9865 111.98C-78.1073 111.98 -80.1413 112.822 -81.6415 114.321L-100.281 132.991" stroke="#AEB9CC" stroke-width="2" stroke-miterlimit="10"/>
<path d="M-7.44922 109.331L60.8408 41.0406C62.3409 39.5415 64.375 38.6993 66.4958 38.6993C68.6166 38.6993 70.6506 39.5415 72.1508 41.0406L78.1508 47.0406C79.6509 48.5398 81.685 49.3819 83.8058 49.3819C85.9266 49.3819 87.9606 48.5398 89.4608 47.0406L108.111 28.3906" stroke="#AEB9CC" stroke-width="2" stroke-miterlimit="10"/>
<path d="M60.8078 75.6953L-7.52218 143.985C-9.02232 145.484 -11.0564 146.326 -13.1772 146.326C-15.298 146.326 -17.332 145.484 -18.8322 143.985L-24.8322 137.985C-26.3323 136.486 -28.3664 135.644 -30.4872 135.644C-32.608 135.644 -34.642 136.486 -36.1422 137.985L-54.7422 156.645" stroke="#AEB9CC" stroke-width="2" stroke-miterlimit="10"/>
</g>
<defs>
<clipPath id="clip0_3354_4517">
<rect width="480" height="760" fill="white"/>
</clipPath>
</defs>
</svg>
