<svg width="1582" height="800" viewBox="0 0 1582 800" fill="none" xmlns="http://www.w3.org/2000/svg">
<rect width="1582" height="800" fill="white"/>
<path d="M792 69.5107C803.806 72.0107 822.972 89.844 848.667 81.5107C874.361 73.1774 887.556 30.5524 915.333 29.5107C943.111 28.469 954.222 71.719 982 76.5107C1009.78 81.3024 1020.89 48.5524 1048.67 52.5107C1076.44 56.469 1087.56 94.8857 1115.33 95.5107C1143.11 96.1357 1154.22 57.594 1182 55.5107C1209.78 53.4274 1220.89 84.6774 1248.67 85.5107C1276.44 86.344 1287.56 57.4274 1315.33 59.5107C1343.11 61.594 1354.22 93.6357 1382 95.5107C1409.78 97.3857 1420.89 66.4274 1448.67 68.5107C1476.44 70.594 1489.64 105.302 1515.33 105.511C1541.03 105.719 1560.19 77.0107 1572 69.5107" stroke="url(#paint0_linear_0_1)" stroke-opacity="0.5" stroke-width="2" stroke-linecap="round"/>
<path d="M792 734.511C803.806 737.011 822.972 754.844 848.667 746.511C874.361 738.177 887.556 695.552 915.333 694.511C943.111 693.469 954.222 736.719 982 741.511C1009.78 746.302 1020.89 713.552 1048.67 717.511C1076.44 721.469 1087.56 759.886 1115.33 760.511C1143.11 761.136 1154.22 722.594 1182 720.511C1209.78 718.427 1220.89 749.677 1248.67 750.511C1276.44 751.344 1287.56 722.427 1315.33 724.511C1343.11 726.594 1354.22 758.636 1382 760.511C1409.78 762.386 1420.89 731.427 1448.67 733.511C1476.44 735.594 1489.64 770.302 1515.33 770.511C1541.03 770.719 1560.19 742.011 1572 734.511" stroke="url(#paint1_linear_0_1)" stroke-opacity="0.5" stroke-width="2" stroke-linecap="round"/>
<path d="M792 699.511C803.806 702.011 822.972 719.844 848.667 711.511C874.361 703.177 887.556 660.552 915.333 659.511C943.111 658.469 954.222 701.719 982 706.511C1009.78 711.302 1020.89 678.552 1048.67 682.511C1076.44 686.469 1087.56 724.886 1115.33 725.511C1143.11 726.136 1154.22 687.594 1182 685.511C1209.78 683.427 1220.89 714.677 1248.67 715.511C1276.44 716.344 1287.56 687.427 1315.33 689.511C1343.11 691.594 1354.22 723.636 1382 725.511C1409.78 727.386 1420.89 696.427 1448.67 698.511C1476.44 700.594 1489.64 735.302 1515.33 735.511C1541.03 735.719 1560.19 707.011 1572 699.511" stroke="url(#paint2_linear_0_1)" stroke-opacity="0.5" stroke-width="2" stroke-linecap="round"/>
<path d="M792 664.511C803.806 667.011 822.972 684.844 848.667 676.511C874.361 668.177 887.556 625.552 915.333 624.511C943.111 623.469 954.222 666.719 982 671.511C1009.78 676.302 1020.89 643.552 1048.67 647.511C1076.44 651.469 1087.56 689.886 1115.33 690.511C1143.11 691.136 1154.22 652.594 1182 650.511C1209.78 648.427 1220.89 679.677 1248.67 680.511C1276.44 681.344 1287.56 652.427 1315.33 654.511C1343.11 656.594 1354.22 688.636 1382 690.511C1409.78 692.386 1420.89 661.427 1448.67 663.511C1476.44 665.594 1489.64 700.302 1515.33 700.511C1541.03 700.719 1560.19 672.011 1572 664.511" stroke="url(#paint3_linear_0_1)" stroke-opacity="0.5" stroke-width="2" stroke-linecap="round"/>
<path d="M792 629.511C803.806 632.011 822.972 649.844 848.667 641.511C874.361 633.177 887.556 590.552 915.333 589.511C943.111 588.469 954.222 631.719 982 636.511C1009.78 641.302 1020.89 608.552 1048.67 612.511C1076.44 616.469 1087.56 654.886 1115.33 655.511C1143.11 656.136 1154.22 617.594 1182 615.511C1209.78 613.427 1220.89 644.677 1248.67 645.511C1276.44 646.344 1287.56 617.427 1315.33 619.511C1343.11 621.594 1354.22 653.636 1382 655.511C1409.78 657.386 1420.89 626.427 1448.67 628.511C1476.44 630.594 1489.64 665.302 1515.33 665.511C1541.03 665.719 1560.19 637.011 1572 629.511" stroke="url(#paint4_linear_0_1)" stroke-opacity="0.5" stroke-width="2" stroke-linecap="round"/>
<path d="M792 594.511C803.806 597.011 822.972 614.844 848.667 606.511C874.361 598.177 887.556 555.552 915.333 554.511C943.111 553.469 954.222 596.719 982 601.511C1009.78 606.302 1020.89 573.552 1048.67 577.511C1076.44 581.469 1087.56 619.886 1115.33 620.511C1143.11 621.136 1154.22 582.594 1182 580.511C1209.78 578.427 1220.89 609.677 1248.67 610.511C1276.44 611.344 1287.56 582.427 1315.33 584.511C1343.11 586.594 1354.22 618.636 1382 620.511C1409.78 622.386 1420.89 591.427 1448.67 593.511C1476.44 595.594 1489.64 630.302 1515.33 630.511C1541.03 630.719 1560.19 602.011 1572 594.511" stroke="url(#paint5_linear_0_1)" stroke-opacity="0.5" stroke-width="2" stroke-linecap="round"/>
<path d="M792 559.511C803.806 562.011 822.972 579.844 848.667 571.511C874.361 563.177 887.556 520.552 915.333 519.511C943.111 518.469 954.222 561.719 982 566.511C1009.78 571.302 1020.89 538.552 1048.67 542.511C1076.44 546.469 1087.56 584.886 1115.33 585.511C1143.11 586.136 1154.22 547.594 1182 545.511C1209.78 543.427 1220.89 574.677 1248.67 575.511C1276.44 576.344 1287.56 547.427 1315.33 549.511C1343.11 551.594 1354.22 583.636 1382 585.511C1409.78 587.386 1420.89 556.427 1448.67 558.511C1476.44 560.594 1489.64 595.302 1515.33 595.511C1541.03 595.719 1560.19 567.011 1572 559.511" stroke="url(#paint6_linear_0_1)" stroke-opacity="0.5" stroke-width="2" stroke-linecap="round"/>
<path d="M792 524.511C803.806 527.011 822.972 544.844 848.667 536.511C874.361 528.177 887.556 485.552 915.333 484.511C943.111 483.469 954.222 526.719 982 531.511C1009.78 536.302 1020.89 503.552 1048.67 507.511C1076.44 511.469 1087.56 549.886 1115.33 550.511C1143.11 551.136 1154.22 512.594 1182 510.511C1209.78 508.427 1220.89 539.677 1248.67 540.511C1276.44 541.344 1287.56 512.427 1315.33 514.511C1343.11 516.594 1354.22 548.636 1382 550.511C1409.78 552.386 1420.89 521.427 1448.67 523.511C1476.44 525.594 1489.64 560.302 1515.33 560.511C1541.03 560.719 1560.19 532.011 1572 524.511" stroke="url(#paint7_linear_0_1)" stroke-opacity="0.5" stroke-width="2" stroke-linecap="round"/>
<path d="M792 489.511C803.806 492.011 822.972 509.844 848.667 501.511C874.361 493.177 887.556 450.552 915.333 449.511C943.111 448.469 954.222 491.719 982 496.511C1009.78 501.302 1020.89 468.552 1048.67 472.511C1076.44 476.469 1087.56 514.886 1115.33 515.511C1143.11 516.136 1154.22 477.594 1182 475.511C1209.78 473.427 1220.89 504.677 1248.67 505.511C1276.44 506.344 1287.56 477.427 1315.33 479.511C1343.11 481.594 1354.22 513.636 1382 515.511C1409.78 517.386 1420.89 486.427 1448.67 488.511C1476.44 490.594 1489.64 525.302 1515.33 525.511C1541.03 525.719 1560.19 497.011 1572 489.511" stroke="url(#paint8_linear_0_1)" stroke-opacity="0.5" stroke-width="2" stroke-linecap="round"/>
<path d="M792 454.511C803.806 457.011 822.972 474.844 848.667 466.511C874.361 458.177 887.556 415.552 915.333 414.511C943.111 413.469 954.222 456.719 982 461.511C1009.78 466.302 1020.89 433.552 1048.67 437.511C1076.44 441.469 1087.56 479.886 1115.33 480.511C1143.11 481.136 1154.22 442.594 1182 440.511C1209.78 438.427 1220.89 469.677 1248.67 470.511C1276.44 471.344 1287.56 442.427 1315.33 444.511C1343.11 446.594 1354.22 478.636 1382 480.511C1409.78 482.386 1420.89 451.427 1448.67 453.511C1476.44 455.594 1489.64 490.302 1515.33 490.511C1541.03 490.719 1560.19 462.011 1572 454.511" stroke="url(#paint9_linear_0_1)" stroke-opacity="0.5" stroke-width="2" stroke-linecap="round"/>
<path d="M792 419.511C803.806 422.011 822.972 439.844 848.667 431.511C874.361 423.177 887.556 380.552 915.333 379.511C943.111 378.469 954.222 421.719 982 426.511C1009.78 431.302 1020.89 398.552 1048.67 402.511C1076.44 406.469 1087.56 444.886 1115.33 445.511C1143.11 446.136 1154.22 407.594 1182 405.511C1209.78 403.427 1220.89 434.677 1248.67 435.511C1276.44 436.344 1287.56 407.427 1315.33 409.511C1343.11 411.594 1354.22 443.636 1382 445.511C1409.78 447.386 1420.89 416.427 1448.67 418.511C1476.44 420.594 1489.64 455.302 1515.33 455.511C1541.03 455.719 1560.19 427.011 1572 419.511" stroke="url(#paint10_linear_0_1)" stroke-opacity="0.5" stroke-width="2" stroke-linecap="round"/>
<path d="M792 384.511C803.806 387.011 822.972 404.844 848.667 396.511C874.361 388.177 887.556 345.552 915.333 344.511C943.111 343.469 954.222 386.719 982 391.511C1009.78 396.302 1020.89 363.552 1048.67 367.511C1076.44 371.469 1087.56 409.886 1115.33 410.511C1143.11 411.136 1154.22 372.594 1182 370.511C1209.78 368.427 1220.89 399.677 1248.67 400.511C1276.44 401.344 1287.56 372.427 1315.33 374.511C1343.11 376.594 1354.22 408.636 1382 410.511C1409.78 412.386 1420.89 381.427 1448.67 383.511C1476.44 385.594 1489.64 420.302 1515.33 420.511C1541.03 420.719 1560.19 392.011 1572 384.511" stroke="url(#paint11_linear_0_1)" stroke-opacity="0.5" stroke-width="2" stroke-linecap="round"/>
<path d="M792 349.511C803.806 352.011 822.972 369.844 848.667 361.511C874.361 353.177 887.556 310.552 915.333 309.511C943.111 308.469 954.222 351.719 982 356.511C1009.78 361.302 1020.89 328.552 1048.67 332.511C1076.44 336.469 1087.56 374.886 1115.33 375.511C1143.11 376.136 1154.22 337.594 1182 335.511C1209.78 333.427 1220.89 364.677 1248.67 365.511C1276.44 366.344 1287.56 337.427 1315.33 339.511C1343.11 341.594 1354.22 373.636 1382 375.511C1409.78 377.386 1420.89 346.427 1448.67 348.511C1476.44 350.594 1489.64 385.302 1515.33 385.511C1541.03 385.719 1560.19 357.011 1572 349.511" stroke="url(#paint12_linear_0_1)" stroke-opacity="0.5" stroke-width="2" stroke-linecap="round"/>
<path d="M792 314.511C803.806 317.011 822.972 334.844 848.667 326.511C874.361 318.177 887.556 275.552 915.333 274.511C943.111 273.469 954.222 316.719 982 321.511C1009.78 326.302 1020.89 293.552 1048.67 297.511C1076.44 301.469 1087.56 339.886 1115.33 340.511C1143.11 341.136 1154.22 302.594 1182 300.511C1209.78 298.427 1220.89 329.677 1248.67 330.511C1276.44 331.344 1287.56 302.427 1315.33 304.511C1343.11 306.594 1354.22 338.636 1382 340.511C1409.78 342.386 1420.89 311.427 1448.67 313.511C1476.44 315.594 1489.64 350.302 1515.33 350.511C1541.03 350.719 1560.19 322.011 1572 314.511" stroke="url(#paint13_linear_0_1)" stroke-opacity="0.5" stroke-width="2" stroke-linecap="round"/>
<path d="M792 279.511C803.806 282.011 822.972 299.844 848.667 291.511C874.361 283.177 887.556 240.552 915.333 239.511C943.111 238.469 954.222 281.719 982 286.511C1009.78 291.302 1020.89 258.552 1048.67 262.511C1076.44 266.469 1087.56 304.886 1115.33 305.511C1143.11 306.136 1154.22 267.594 1182 265.511C1209.78 263.427 1220.89 294.677 1248.67 295.511C1276.44 296.344 1287.56 267.427 1315.33 269.511C1343.11 271.594 1354.22 303.636 1382 305.511C1409.78 307.386 1420.89 276.427 1448.67 278.511C1476.44 280.594 1489.64 315.302 1515.33 315.511C1541.03 315.719 1560.19 287.011 1572 279.511" stroke="url(#paint14_linear_0_1)" stroke-opacity="0.5" stroke-width="2" stroke-linecap="round"/>
<path d="M792 244.511C803.806 247.011 822.972 264.844 848.667 256.511C874.361 248.177 887.556 205.552 915.333 204.511C943.111 203.469 954.222 246.719 982 251.511C1009.78 256.302 1020.89 223.552 1048.67 227.511C1076.44 231.469 1087.56 269.886 1115.33 270.511C1143.11 271.136 1154.22 232.594 1182 230.511C1209.78 228.427 1220.89 259.677 1248.67 260.511C1276.44 261.344 1287.56 232.427 1315.33 234.511C1343.11 236.594 1354.22 268.636 1382 270.511C1409.78 272.386 1420.89 241.427 1448.67 243.511C1476.44 245.594 1489.64 280.302 1515.33 280.511C1541.03 280.719 1560.19 252.011 1572 244.511" stroke="url(#paint15_linear_0_1)" stroke-opacity="0.5" stroke-width="2" stroke-linecap="round"/>
<path d="M792 209.511C803.806 212.011 822.972 229.844 848.667 221.511C874.361 213.177 887.556 170.552 915.333 169.511C943.111 168.469 954.222 211.719 982 216.511C1009.78 221.302 1020.89 188.552 1048.67 192.511C1076.44 196.469 1087.56 234.886 1115.33 235.511C1143.11 236.136 1154.22 197.594 1182 195.511C1209.78 193.427 1220.89 224.677 1248.67 225.511C1276.44 226.344 1287.56 197.427 1315.33 199.511C1343.11 201.594 1354.22 233.636 1382 235.511C1409.78 237.386 1420.89 206.427 1448.67 208.511C1476.44 210.594 1489.64 245.302 1515.33 245.511C1541.03 245.719 1560.19 217.011 1572 209.511" stroke="url(#paint16_linear_0_1)" stroke-opacity="0.5" stroke-width="2" stroke-linecap="round"/>
<path d="M792 174.511C803.806 177.011 822.972 194.844 848.667 186.511C874.361 178.177 887.556 135.552 915.333 134.511C943.111 133.469 954.222 176.719 982 181.511C1009.78 186.302 1020.89 153.552 1048.67 157.511C1076.44 161.469 1087.56 199.886 1115.33 200.511C1143.11 201.136 1154.22 162.594 1182 160.511C1209.78 158.427 1220.89 189.677 1248.67 190.511C1276.44 191.344 1287.56 162.427 1315.33 164.511C1343.11 166.594 1354.22 198.636 1382 200.511C1409.78 202.386 1420.89 171.427 1448.67 173.511C1476.44 175.594 1489.64 210.302 1515.33 210.511C1541.03 210.719 1560.19 182.011 1572 174.511" stroke="url(#paint17_linear_0_1)" stroke-opacity="0.5" stroke-width="2" stroke-linecap="round"/>
<path d="M792 139.511C803.806 142.011 822.972 159.844 848.667 151.511C874.361 143.177 887.556 100.552 915.333 99.5107C943.111 98.469 954.222 141.719 982 146.511C1009.78 151.302 1020.89 118.552 1048.67 122.511C1076.44 126.469 1087.56 164.886 1115.33 165.511C1143.11 166.136 1154.22 127.594 1182 125.511C1209.78 123.427 1220.89 154.677 1248.67 155.511C1276.44 156.344 1287.56 127.427 1315.33 129.511C1343.11 131.594 1354.22 163.636 1382 165.511C1409.78 167.386 1420.89 136.427 1448.67 138.511C1476.44 140.594 1489.64 175.302 1515.33 175.511C1541.03 175.719 1560.19 147.011 1572 139.511" stroke="url(#paint18_linear_0_1)" stroke-opacity="0.5" stroke-width="2" stroke-linecap="round"/>
<path d="M792 104.511C803.806 107.011 822.972 124.844 848.667 116.511C874.361 108.177 887.556 65.5524 915.333 64.5107C943.111 63.469 954.222 106.719 982 111.511C1009.78 116.302 1020.89 83.5524 1048.67 87.5107C1076.44 91.469 1087.56 129.886 1115.33 130.511C1143.11 131.136 1154.22 92.594 1182 90.5107C1209.78 88.4274 1220.89 119.677 1248.67 120.511C1276.44 121.344 1287.56 92.4274 1315.33 94.5107C1343.11 96.594 1354.22 128.636 1382 130.511C1409.78 132.386 1420.89 101.427 1448.67 103.511C1476.44 105.594 1489.64 140.302 1515.33 140.511C1541.03 140.719 1560.19 112.011 1572 104.511" stroke="url(#paint19_linear_0_1)" stroke-opacity="0.5" stroke-width="2" stroke-linecap="round"/>
<path d="M10 69.5107C21.8056 72.0107 40.9722 89.844 66.6667 81.5107C92.3611 73.1774 105.556 30.5524 133.333 29.5107C161.111 28.469 172.222 71.719 200 76.5107C227.778 81.3024 238.889 48.5524 266.667 52.5107C294.444 56.469 305.556 94.8857 333.333 95.5107C361.111 96.1357 372.222 57.594 400 55.5107C427.778 53.4274 438.889 84.6774 466.667 85.5107C494.444 86.344 505.556 57.4274 533.333 59.5107C561.111 61.594 572.222 93.6357 600 95.5107C627.778 97.3857 638.889 66.4274 666.667 68.5107C694.444 70.594 707.639 105.302 733.333 105.511C759.028 105.719 778.194 77.0107 790 69.5107" stroke="url(#paint20_linear_0_1)" stroke-opacity="0.5" stroke-width="2" stroke-linecap="round"/>
<path d="M10 734.511C21.8056 737.011 40.9722 754.844 66.6667 746.511C92.3611 738.177 105.556 695.552 133.333 694.511C161.111 693.469 172.222 736.719 200 741.511C227.778 746.302 238.889 713.552 266.667 717.511C294.444 721.469 305.556 759.886 333.333 760.511C361.111 761.136 372.222 722.594 400 720.511C427.778 718.427 438.889 749.677 466.667 750.511C494.444 751.344 505.556 722.427 533.333 724.511C561.111 726.594 572.222 758.636 600 760.511C627.778 762.386 638.889 731.427 666.667 733.511C694.444 735.594 707.639 770.302 733.333 770.511C759.028 770.719 778.194 742.011 790 734.511" stroke="url(#paint21_linear_0_1)" stroke-opacity="0.5" stroke-width="2" stroke-linecap="round"/>
<path d="M10 699.511C21.8056 702.011 40.9722 719.844 66.6667 711.511C92.3611 703.177 105.556 660.552 133.333 659.511C161.111 658.469 172.222 701.719 200 706.511C227.778 711.302 238.889 678.552 266.667 682.511C294.444 686.469 305.556 724.886 333.333 725.511C361.111 726.136 372.222 687.594 400 685.511C427.778 683.427 438.889 714.677 466.667 715.511C494.444 716.344 505.556 687.427 533.333 689.511C561.111 691.594 572.222 723.636 600 725.511C627.778 727.386 638.889 696.427 666.667 698.511C694.444 700.594 707.639 735.302 733.333 735.511C759.028 735.719 778.194 707.011 790 699.511" stroke="url(#paint22_linear_0_1)" stroke-opacity="0.5" stroke-width="2" stroke-linecap="round"/>
<path d="M10 664.511C21.8056 667.011 40.9722 684.844 66.6667 676.511C92.3611 668.177 105.556 625.552 133.333 624.511C161.111 623.469 172.222 666.719 200 671.511C227.778 676.302 238.889 643.552 266.667 647.511C294.444 651.469 305.556 689.886 333.333 690.511C361.111 691.136 372.222 652.594 400 650.511C427.778 648.427 438.889 679.677 466.667 680.511C494.444 681.344 505.556 652.427 533.333 654.511C561.111 656.594 572.222 688.636 600 690.511C627.778 692.386 638.889 661.427 666.667 663.511C694.444 665.594 707.639 700.302 733.333 700.511C759.028 700.719 778.194 672.011 790 664.511" stroke="url(#paint23_linear_0_1)" stroke-opacity="0.5" stroke-width="2" stroke-linecap="round"/>
<path d="M10 629.511C21.8056 632.011 40.9722 649.844 66.6667 641.511C92.3611 633.177 105.556 590.552 133.333 589.511C161.111 588.469 172.222 631.719 200 636.511C227.778 641.302 238.889 608.552 266.667 612.511C294.444 616.469 305.556 654.886 333.333 655.511C361.111 656.136 372.222 617.594 400 615.511C427.778 613.427 438.889 644.677 466.667 645.511C494.444 646.344 505.556 617.427 533.333 619.511C561.111 621.594 572.222 653.636 600 655.511C627.778 657.386 638.889 626.427 666.667 628.511C694.444 630.594 707.639 665.302 733.333 665.511C759.028 665.719 778.194 637.011 790 629.511" stroke="url(#paint24_linear_0_1)" stroke-opacity="0.5" stroke-width="2" stroke-linecap="round"/>
<path d="M10 594.511C21.8056 597.011 40.9722 614.844 66.6667 606.511C92.3611 598.177 105.556 555.552 133.333 554.511C161.111 553.469 172.222 596.719 200 601.511C227.778 606.302 238.889 573.552 266.667 577.511C294.444 581.469 305.556 619.886 333.333 620.511C361.111 621.136 372.222 582.594 400 580.511C427.778 578.427 438.889 609.677 466.667 610.511C494.444 611.344 505.556 582.427 533.333 584.511C561.111 586.594 572.222 618.636 600 620.511C627.778 622.386 638.889 591.427 666.667 593.511C694.444 595.594 707.639 630.302 733.333 630.511C759.028 630.719 778.194 602.011 790 594.511" stroke="url(#paint25_linear_0_1)" stroke-opacity="0.5" stroke-width="2" stroke-linecap="round"/>
<path d="M10 559.511C21.8056 562.011 40.9722 579.844 66.6667 571.511C92.3611 563.177 105.556 520.552 133.333 519.511C161.111 518.469 172.222 561.719 200 566.511C227.778 571.302 238.889 538.552 266.667 542.511C294.444 546.469 305.556 584.886 333.333 585.511C361.111 586.136 372.222 547.594 400 545.511C427.778 543.427 438.889 574.677 466.667 575.511C494.444 576.344 505.556 547.427 533.333 549.511C561.111 551.594 572.222 583.636 600 585.511C627.778 587.386 638.889 556.427 666.667 558.511C694.444 560.594 707.639 595.302 733.333 595.511C759.028 595.719 778.194 567.011 790 559.511" stroke="url(#paint26_linear_0_1)" stroke-opacity="0.5" stroke-width="2" stroke-linecap="round"/>
<path d="M10 524.511C21.8056 527.011 40.9722 544.844 66.6667 536.511C92.3611 528.177 105.556 485.552 133.333 484.511C161.111 483.469 172.222 526.719 200 531.511C227.778 536.302 238.889 503.552 266.667 507.511C294.444 511.469 305.556 549.886 333.333 550.511C361.111 551.136 372.222 512.594 400 510.511C427.778 508.427 438.889 539.677 466.667 540.511C494.444 541.344 505.556 512.427 533.333 514.511C561.111 516.594 572.222 548.636 600 550.511C627.778 552.386 638.889 521.427 666.667 523.511C694.444 525.594 707.639 560.302 733.333 560.511C759.028 560.719 778.194 532.011 790 524.511" stroke="url(#paint27_linear_0_1)" stroke-opacity="0.5" stroke-width="2" stroke-linecap="round"/>
<path d="M10 489.511C21.8056 492.011 40.9722 509.844 66.6667 501.511C92.3611 493.177 105.556 450.552 133.333 449.511C161.111 448.469 172.222 491.719 200 496.511C227.778 501.302 238.889 468.552 266.667 472.511C294.444 476.469 305.556 514.886 333.333 515.511C361.111 516.136 372.222 477.594 400 475.511C427.778 473.427 438.889 504.677 466.667 505.511C494.444 506.344 505.556 477.427 533.333 479.511C561.111 481.594 572.222 513.636 600 515.511C627.778 517.386 638.889 486.427 666.667 488.511C694.444 490.594 707.639 525.302 733.333 525.511C759.028 525.719 778.194 497.011 790 489.511" stroke="url(#paint28_linear_0_1)" stroke-opacity="0.5" stroke-width="2" stroke-linecap="round"/>
<path d="M10 454.511C21.8056 457.011 40.9722 474.844 66.6667 466.511C92.3611 458.177 105.556 415.552 133.333 414.511C161.111 413.469 172.222 456.719 200 461.511C227.778 466.302 238.889 433.552 266.667 437.511C294.444 441.469 305.556 479.886 333.333 480.511C361.111 481.136 372.222 442.594 400 440.511C427.778 438.427 438.889 469.677 466.667 470.511C494.444 471.344 505.556 442.427 533.333 444.511C561.111 446.594 572.222 478.636 600 480.511C627.778 482.386 638.889 451.427 666.667 453.511C694.444 455.594 707.639 490.302 733.333 490.511C759.028 490.719 778.194 462.011 790 454.511" stroke="url(#paint29_linear_0_1)" stroke-opacity="0.5" stroke-width="2" stroke-linecap="round"/>
<path d="M10 419.511C21.8056 422.011 40.9722 439.844 66.6667 431.511C92.3611 423.177 105.556 380.552 133.333 379.511C161.111 378.469 172.222 421.719 200 426.511C227.778 431.302 238.889 398.552 266.667 402.511C294.444 406.469 305.556 444.886 333.333 445.511C361.111 446.136 372.222 407.594 400 405.511C427.778 403.427 438.889 434.677 466.667 435.511C494.444 436.344 505.556 407.427 533.333 409.511C561.111 411.594 572.222 443.636 600 445.511C627.778 447.386 638.889 416.427 666.667 418.511C694.444 420.594 707.639 455.302 733.333 455.511C759.028 455.719 778.194 427.011 790 419.511" stroke="url(#paint30_linear_0_1)" stroke-opacity="0.5" stroke-width="2" stroke-linecap="round"/>
<path d="M10 384.511C21.8056 387.011 40.9722 404.844 66.6667 396.511C92.3611 388.177 105.556 345.552 133.333 344.511C161.111 343.469 172.222 386.719 200 391.511C227.778 396.302 238.889 363.552 266.667 367.511C294.444 371.469 305.556 409.886 333.333 410.511C361.111 411.136 372.222 372.594 400 370.511C427.778 368.427 438.889 399.677 466.667 400.511C494.444 401.344 505.556 372.427 533.333 374.511C561.111 376.594 572.222 408.636 600 410.511C627.778 412.386 638.889 381.427 666.667 383.511C694.444 385.594 707.639 420.302 733.333 420.511C759.028 420.719 778.194 392.011 790 384.511" stroke="url(#paint31_linear_0_1)" stroke-opacity="0.5" stroke-width="2" stroke-linecap="round"/>
<path d="M10 349.511C21.8056 352.011 40.9722 369.844 66.6667 361.511C92.3611 353.177 105.556 310.552 133.333 309.511C161.111 308.469 172.222 351.719 200 356.511C227.778 361.302 238.889 328.552 266.667 332.511C294.444 336.469 305.556 374.886 333.333 375.511C361.111 376.136 372.222 337.594 400 335.511C427.778 333.427 438.889 364.677 466.667 365.511C494.444 366.344 505.556 337.427 533.333 339.511C561.111 341.594 572.222 373.636 600 375.511C627.778 377.386 638.889 346.427 666.667 348.511C694.444 350.594 707.639 385.302 733.333 385.511C759.028 385.719 778.194 357.011 790 349.511" stroke="url(#paint32_linear_0_1)" stroke-opacity="0.5" stroke-width="2" stroke-linecap="round"/>
<path d="M10 314.511C21.8056 317.011 40.9722 334.844 66.6667 326.511C92.3611 318.177 105.556 275.552 133.333 274.511C161.111 273.469 172.222 316.719 200 321.511C227.778 326.302 238.889 293.552 266.667 297.511C294.444 301.469 305.556 339.886 333.333 340.511C361.111 341.136 372.222 302.594 400 300.511C427.778 298.427 438.889 329.677 466.667 330.511C494.444 331.344 505.556 302.427 533.333 304.511C561.111 306.594 572.222 338.636 600 340.511C627.778 342.386 638.889 311.427 666.667 313.511C694.444 315.594 707.639 350.302 733.333 350.511C759.028 350.719 778.194 322.011 790 314.511" stroke="url(#paint33_linear_0_1)" stroke-opacity="0.5" stroke-width="2" stroke-linecap="round"/>
<path d="M10 279.511C21.8056 282.011 40.9722 299.844 66.6667 291.511C92.3611 283.177 105.556 240.552 133.333 239.511C161.111 238.469 172.222 281.719 200 286.511C227.778 291.302 238.889 258.552 266.667 262.511C294.444 266.469 305.556 304.886 333.333 305.511C361.111 306.136 372.222 267.594 400 265.511C427.778 263.427 438.889 294.677 466.667 295.511C494.444 296.344 505.556 267.427 533.333 269.511C561.111 271.594 572.222 303.636 600 305.511C627.778 307.386 638.889 276.427 666.667 278.511C694.444 280.594 707.639 315.302 733.333 315.511C759.028 315.719 778.194 287.011 790 279.511" stroke="url(#paint34_linear_0_1)" stroke-opacity="0.5" stroke-width="2" stroke-linecap="round"/>
<path d="M10 244.511C21.8056 247.011 40.9722 264.844 66.6667 256.511C92.3611 248.177 105.556 205.552 133.333 204.511C161.111 203.469 172.222 246.719 200 251.511C227.778 256.302 238.889 223.552 266.667 227.511C294.444 231.469 305.556 269.886 333.333 270.511C361.111 271.136 372.222 232.594 400 230.511C427.778 228.427 438.889 259.677 466.667 260.511C494.444 261.344 505.556 232.427 533.333 234.511C561.111 236.594 572.222 268.636 600 270.511C627.778 272.386 638.889 241.427 666.667 243.511C694.444 245.594 707.639 280.302 733.333 280.511C759.028 280.719 778.194 252.011 790 244.511" stroke="url(#paint35_linear_0_1)" stroke-opacity="0.5" stroke-width="2" stroke-linecap="round"/>
<path d="M10 209.511C21.8056 212.011 40.9722 229.844 66.6667 221.511C92.3611 213.177 105.556 170.552 133.333 169.511C161.111 168.469 172.222 211.719 200 216.511C227.778 221.302 238.889 188.552 266.667 192.511C294.444 196.469 305.556 234.886 333.333 235.511C361.111 236.136 372.222 197.594 400 195.511C427.778 193.427 438.889 224.677 466.667 225.511C494.444 226.344 505.556 197.427 533.333 199.511C561.111 201.594 572.222 233.636 600 235.511C627.778 237.386 638.889 206.427 666.667 208.511C694.444 210.594 707.639 245.302 733.333 245.511C759.028 245.719 778.194 217.011 790 209.511" stroke="url(#paint36_linear_0_1)" stroke-opacity="0.5" stroke-width="2" stroke-linecap="round"/>
<path d="M10 174.511C21.8056 177.011 40.9722 194.844 66.6667 186.511C92.3611 178.177 105.556 135.552 133.333 134.511C161.111 133.469 172.222 176.719 200 181.511C227.778 186.302 238.889 153.552 266.667 157.511C294.444 161.469 305.556 199.886 333.333 200.511C361.111 201.136 372.222 162.594 400 160.511C427.778 158.427 438.889 189.677 466.667 190.511C494.444 191.344 505.556 162.427 533.333 164.511C561.111 166.594 572.222 198.636 600 200.511C627.778 202.386 638.889 171.427 666.667 173.511C694.444 175.594 707.639 210.302 733.333 210.511C759.028 210.719 778.194 182.011 790 174.511" stroke="url(#paint37_linear_0_1)" stroke-opacity="0.5" stroke-width="2" stroke-linecap="round"/>
<path d="M10 139.511C21.8056 142.011 40.9722 159.844 66.6667 151.511C92.3611 143.177 105.556 100.552 133.333 99.5107C161.111 98.469 172.222 141.719 200 146.511C227.778 151.302 238.889 118.552 266.667 122.511C294.444 126.469 305.556 164.886 333.333 165.511C361.111 166.136 372.222 127.594 400 125.511C427.778 123.427 438.889 154.677 466.667 155.511C494.444 156.344 505.556 127.427 533.333 129.511C561.111 131.594 572.222 163.636 600 165.511C627.778 167.386 638.889 136.427 666.667 138.511C694.444 140.594 707.639 175.302 733.333 175.511C759.028 175.719 778.194 147.011 790 139.511" stroke="url(#paint38_linear_0_1)" stroke-opacity="0.5" stroke-width="2" stroke-linecap="round"/>
<path d="M10 104.511C21.8056 107.011 40.9722 124.844 66.6667 116.511C92.3611 108.177 105.556 65.5524 133.333 64.5107C161.111 63.469 172.222 106.719 200 111.511C227.778 116.302 238.889 83.5524 266.667 87.5107C294.444 91.469 305.556 129.886 333.333 130.511C361.111 131.136 372.222 92.594 400 90.5107C427.778 88.4274 438.889 119.677 466.667 120.511C494.444 121.344 505.556 92.4274 533.333 94.5107C561.111 96.594 572.222 128.636 600 130.511C627.778 132.386 638.889 101.427 666.667 103.511C694.444 105.594 707.639 140.302 733.333 140.511C759.028 140.719 778.194 112.011 790 104.511" stroke="url(#paint39_linear_0_1)" stroke-opacity="0.5" stroke-width="2" stroke-linecap="round"/>
<defs>
<linearGradient id="paint0_linear_0_1" x1="751.981" y1="-38950.5" x2="8353.95" y2="-38950.5" gradientUnits="userSpaceOnUse">
<stop stop-color="#009BE1"/>
<stop offset="1" stop-color="#8730DF"/>
</linearGradient>
<linearGradient id="paint1_linear_0_1" x1="751.981" y1="-38285.5" x2="8353.95" y2="-38285.5" gradientUnits="userSpaceOnUse">
<stop stop-color="#009BE1"/>
<stop offset="1" stop-color="#8730DF"/>
</linearGradient>
<linearGradient id="paint2_linear_0_1" x1="751.981" y1="-38320.5" x2="8353.95" y2="-38320.5" gradientUnits="userSpaceOnUse">
<stop stop-color="#009BE1"/>
<stop offset="1" stop-color="#8730DF"/>
</linearGradient>
<linearGradient id="paint3_linear_0_1" x1="751.981" y1="-38355.5" x2="8353.95" y2="-38355.5" gradientUnits="userSpaceOnUse">
<stop stop-color="#009BE1"/>
<stop offset="1" stop-color="#8730DF"/>
</linearGradient>
<linearGradient id="paint4_linear_0_1" x1="751.981" y1="-38390.5" x2="8353.95" y2="-38390.5" gradientUnits="userSpaceOnUse">
<stop stop-color="#009BE1"/>
<stop offset="1" stop-color="#8730DF"/>
</linearGradient>
<linearGradient id="paint5_linear_0_1" x1="751.981" y1="-38425.5" x2="8353.95" y2="-38425.5" gradientUnits="userSpaceOnUse">
<stop stop-color="#009BE1"/>
<stop offset="1" stop-color="#8730DF"/>
</linearGradient>
<linearGradient id="paint6_linear_0_1" x1="751.981" y1="-38460.5" x2="8353.95" y2="-38460.5" gradientUnits="userSpaceOnUse">
<stop stop-color="#009BE1"/>
<stop offset="1" stop-color="#8730DF"/>
</linearGradient>
<linearGradient id="paint7_linear_0_1" x1="751.981" y1="-38495.5" x2="8353.95" y2="-38495.5" gradientUnits="userSpaceOnUse">
<stop stop-color="#009BE1"/>
<stop offset="1" stop-color="#8730DF"/>
</linearGradient>
<linearGradient id="paint8_linear_0_1" x1="751.981" y1="-38530.5" x2="8353.95" y2="-38530.5" gradientUnits="userSpaceOnUse">
<stop stop-color="#009BE1"/>
<stop offset="1" stop-color="#8730DF"/>
</linearGradient>
<linearGradient id="paint9_linear_0_1" x1="751.981" y1="-38565.5" x2="8353.95" y2="-38565.5" gradientUnits="userSpaceOnUse">
<stop stop-color="#009BE1"/>
<stop offset="1" stop-color="#8730DF"/>
</linearGradient>
<linearGradient id="paint10_linear_0_1" x1="751.981" y1="-38600.5" x2="8353.95" y2="-38600.5" gradientUnits="userSpaceOnUse">
<stop stop-color="#009BE1"/>
<stop offset="1" stop-color="#8730DF"/>
</linearGradient>
<linearGradient id="paint11_linear_0_1" x1="751.981" y1="-38635.5" x2="8353.95" y2="-38635.5" gradientUnits="userSpaceOnUse">
<stop stop-color="#009BE1"/>
<stop offset="1" stop-color="#8730DF"/>
</linearGradient>
<linearGradient id="paint12_linear_0_1" x1="751.981" y1="-38670.5" x2="8353.95" y2="-38670.5" gradientUnits="userSpaceOnUse">
<stop stop-color="#009BE1"/>
<stop offset="1" stop-color="#8730DF"/>
</linearGradient>
<linearGradient id="paint13_linear_0_1" x1="751.981" y1="-38705.5" x2="8353.95" y2="-38705.5" gradientUnits="userSpaceOnUse">
<stop stop-color="#009BE1"/>
<stop offset="1" stop-color="#8730DF"/>
</linearGradient>
<linearGradient id="paint14_linear_0_1" x1="751.981" y1="-38740.5" x2="8353.95" y2="-38740.5" gradientUnits="userSpaceOnUse">
<stop stop-color="#009BE1"/>
<stop offset="1" stop-color="#8730DF"/>
</linearGradient>
<linearGradient id="paint15_linear_0_1" x1="751.981" y1="-38775.5" x2="8353.95" y2="-38775.5" gradientUnits="userSpaceOnUse">
<stop stop-color="#009BE1"/>
<stop offset="1" stop-color="#8730DF"/>
</linearGradient>
<linearGradient id="paint16_linear_0_1" x1="751.981" y1="-38810.5" x2="8353.95" y2="-38810.5" gradientUnits="userSpaceOnUse">
<stop stop-color="#009BE1"/>
<stop offset="1" stop-color="#8730DF"/>
</linearGradient>
<linearGradient id="paint17_linear_0_1" x1="751.981" y1="-38845.5" x2="8353.95" y2="-38845.5" gradientUnits="userSpaceOnUse">
<stop stop-color="#009BE1"/>
<stop offset="1" stop-color="#8730DF"/>
</linearGradient>
<linearGradient id="paint18_linear_0_1" x1="751.981" y1="-38880.5" x2="8353.95" y2="-38880.5" gradientUnits="userSpaceOnUse">
<stop stop-color="#009BE1"/>
<stop offset="1" stop-color="#8730DF"/>
</linearGradient>
<linearGradient id="paint19_linear_0_1" x1="751.981" y1="-38915.5" x2="8353.95" y2="-38915.5" gradientUnits="userSpaceOnUse">
<stop stop-color="#009BE1"/>
<stop offset="1" stop-color="#8730DF"/>
</linearGradient>
<linearGradient id="paint20_linear_0_1" x1="-30.0185" y1="-38950.5" x2="7571.95" y2="-38950.5" gradientUnits="userSpaceOnUse">
<stop stop-color="#009BE1"/>
<stop offset="1" stop-color="#8730DF"/>
</linearGradient>
<linearGradient id="paint21_linear_0_1" x1="-30.0185" y1="-38285.5" x2="7571.95" y2="-38285.5" gradientUnits="userSpaceOnUse">
<stop stop-color="#009BE1"/>
<stop offset="1" stop-color="#8730DF"/>
</linearGradient>
<linearGradient id="paint22_linear_0_1" x1="-30.0185" y1="-38320.5" x2="7571.95" y2="-38320.5" gradientUnits="userSpaceOnUse">
<stop stop-color="#009BE1"/>
<stop offset="1" stop-color="#8730DF"/>
</linearGradient>
<linearGradient id="paint23_linear_0_1" x1="-30.0185" y1="-38355.5" x2="7571.95" y2="-38355.5" gradientUnits="userSpaceOnUse">
<stop stop-color="#009BE1"/>
<stop offset="1" stop-color="#8730DF"/>
</linearGradient>
<linearGradient id="paint24_linear_0_1" x1="-30.0185" y1="-38390.5" x2="7571.95" y2="-38390.5" gradientUnits="userSpaceOnUse">
<stop stop-color="#009BE1"/>
<stop offset="1" stop-color="#8730DF"/>
</linearGradient>
<linearGradient id="paint25_linear_0_1" x1="-30.0185" y1="-38425.5" x2="7571.95" y2="-38425.5" gradientUnits="userSpaceOnUse">
<stop stop-color="#009BE1"/>
<stop offset="1" stop-color="#8730DF"/>
</linearGradient>
<linearGradient id="paint26_linear_0_1" x1="-30.0185" y1="-38460.5" x2="7571.95" y2="-38460.5" gradientUnits="userSpaceOnUse">
<stop stop-color="#009BE1"/>
<stop offset="1" stop-color="#8730DF"/>
</linearGradient>
<linearGradient id="paint27_linear_0_1" x1="-30.0185" y1="-38495.5" x2="7571.95" y2="-38495.5" gradientUnits="userSpaceOnUse">
<stop stop-color="#009BE1"/>
<stop offset="1" stop-color="#8730DF"/>
</linearGradient>
<linearGradient id="paint28_linear_0_1" x1="-30.0185" y1="-38530.5" x2="7571.95" y2="-38530.5" gradientUnits="userSpaceOnUse">
<stop stop-color="#009BE1"/>
<stop offset="1" stop-color="#8730DF"/>
</linearGradient>
<linearGradient id="paint29_linear_0_1" x1="-30.0185" y1="-38565.5" x2="7571.95" y2="-38565.5" gradientUnits="userSpaceOnUse">
<stop stop-color="#009BE1"/>
<stop offset="1" stop-color="#8730DF"/>
</linearGradient>
<linearGradient id="paint30_linear_0_1" x1="-30.0185" y1="-38600.5" x2="7571.95" y2="-38600.5" gradientUnits="userSpaceOnUse">
<stop stop-color="#009BE1"/>
<stop offset="1" stop-color="#8730DF"/>
</linearGradient>
<linearGradient id="paint31_linear_0_1" x1="-30.0185" y1="-38635.5" x2="7571.95" y2="-38635.5" gradientUnits="userSpaceOnUse">
<stop stop-color="#009BE1"/>
<stop offset="1" stop-color="#8730DF"/>
</linearGradient>
<linearGradient id="paint32_linear_0_1" x1="-30.0185" y1="-38670.5" x2="7571.95" y2="-38670.5" gradientUnits="userSpaceOnUse">
<stop stop-color="#009BE1"/>
<stop offset="1" stop-color="#8730DF"/>
</linearGradient>
<linearGradient id="paint33_linear_0_1" x1="-30.0185" y1="-38705.5" x2="7571.95" y2="-38705.5" gradientUnits="userSpaceOnUse">
<stop stop-color="#009BE1"/>
<stop offset="1" stop-color="#8730DF"/>
</linearGradient>
<linearGradient id="paint34_linear_0_1" x1="-30.0185" y1="-38740.5" x2="7571.95" y2="-38740.5" gradientUnits="userSpaceOnUse">
<stop stop-color="#009BE1"/>
<stop offset="1" stop-color="#8730DF"/>
</linearGradient>
<linearGradient id="paint35_linear_0_1" x1="-30.0185" y1="-38775.5" x2="7571.95" y2="-38775.5" gradientUnits="userSpaceOnUse">
<stop stop-color="#009BE1"/>
<stop offset="1" stop-color="#8730DF"/>
</linearGradient>
<linearGradient id="paint36_linear_0_1" x1="-30.0185" y1="-38810.5" x2="7571.95" y2="-38810.5" gradientUnits="userSpaceOnUse">
<stop stop-color="#009BE1"/>
<stop offset="1" stop-color="#8730DF"/>
</linearGradient>
<linearGradient id="paint37_linear_0_1" x1="-30.0185" y1="-38845.5" x2="7571.95" y2="-38845.5" gradientUnits="userSpaceOnUse">
<stop stop-color="#009BE1"/>
<stop offset="1" stop-color="#8730DF"/>
</linearGradient>
<linearGradient id="paint38_linear_0_1" x1="-30.0185" y1="-38880.5" x2="7571.95" y2="-38880.5" gradientUnits="userSpaceOnUse">
<stop stop-color="#009BE1"/>
<stop offset="1" stop-color="#8730DF"/>
</linearGradient>
<linearGradient id="paint39_linear_0_1" x1="-30.0185" y1="-38915.5" x2="7571.95" y2="-38915.5" gradientUnits="userSpaceOnUse">
<stop stop-color="#009BE1"/>
<stop offset="1" stop-color="#8730DF"/>
</linearGradient>
</defs>
</svg>
