<svg width="38" height="39" viewBox="0 0 38 39" fill="none" xmlns="http://www.w3.org/2000/svg">
<rect x="0.5" y="0.5" width="37" height="37.2547" rx="18.5" fill="#E6F7FF"/>
<rect x="0.5" y="0.5" width="37" height="37.2547" rx="18.5" stroke="#A0DBF5"/>
<path d="M29 12.9246C28.2645 13.2505 27.4744 13.4707 26.6438 13.5702C27.4911 13.0629 28.1412 12.2578 28.4477 11.2995C27.655 11.7698 26.7768 12.1116 25.8422 12.2948C25.0935 11.4985 24.0277 11 22.8474 11C20.582 11 18.7446 12.8374 18.7446 15.1046C18.7446 15.4253 18.7816 15.7371 18.8503 16.0383C15.4388 15.8666 12.4167 14.2326 10.3926 11.7505C10.0403 12.3582 9.83766 13.0629 9.83766 13.8134C9.83766 15.2368 10.5626 16.4937 11.6627 17.2292C10.9898 17.2072 10.3574 17.0231 9.80419 16.7157V16.7685C9.80419 18.7565 11.2179 20.4151 13.0958 20.7921C12.7506 20.8855 12.3885 20.9348 12.0151 20.9348C11.7508 20.9348 11.4927 20.9102 11.2426 20.8626C11.7649 22.4921 13.2799 23.6795 15.0759 23.7112C13.671 24.8122 11.9014 25.4684 9.97948 25.4684C9.64829 25.4684 9.3215 25.449 9 25.4112C10.8163 26.5765 12.9725 27.2547 15.2891 27.2547C22.8378 27.2547 26.9644 21.0026 26.9644 15.5803C26.9644 15.4041 26.96 15.2262 26.9521 15.05C27.7536 14.4704 28.4495 13.7491 28.9982 12.9272L29 12.9246Z" fill="#002C8A"/>
</svg>
